<?xml version="1.0" encoding="UTF-8"?>
<svg width="578px" height="986px" viewBox="0 0 578 986" version="1.1" xmlns="http://www.w3.org/2000/svg" xmlns:xlink="http://www.w3.org/1999/xlink">
    <title>Combined Shape</title>
    <g id="Page-1" stroke="none" stroke-width="1" fill="none" fill-rule="evenodd">
        <g id="web" transform="translate(-954, -1679)" fill="#E6EF61">
            <path d="M1174.66983,1679 C1175.68625,1679.67164 1176.17531,1680.61569 1176.62235,1681.58315 L1176.84461,1682.06767 C1177.03066,1682.47115 1177.22345,1682.87148 1177.4581,1683.25066 L1180.47187,1683.25066 C1180.95683,1684.25856 1181.44179,1685.26646 1181.92263,1686.26613 L1184.09827,1686.26613 C1184.76136,1686.96652 1185.7354,1687.99396 1186.60751,1688.91444 C1187.3056,1688.47426 1188.08298,1687.98471 1189.33091,1687.19896 C1190.13918,1688.70052 1190.85375,1690.02725 1191.20795,1690.68444 L1197.17473,1690.68444 C1198.31145,1691.92786 1199.40802,1693.7935 1201.03898,1694.70884 C1202.49077,1695.52441 1204.00847,1696.0983 1205.06591,1697.50422 L1205.06591,1700.41787 C1206.01524,1701.67672 1207.36098,1700.92182 1208.7232,1701.18717 C1209.28848,1701.71477 1209.99481,1702.37505 1210.94723,1703.26364 L1210.94723,1707.90821 C1212.4155,1708.71865 1214.04337,1708.70425 1214.79398,1710.1369 C1215.559,1711.59836 1217.89629,1711.07281 1218.24328,1712.27612 C1218.60056,1713.51337 1219.07935,1714.4503 1219.91748,1715.31422 C1219.00624,1717.13769 1221.85629,1717.50794 1221.40737,1719.15452 C1221.10157,1720.74454 1218.40081,1721.55805 1219.49532,1724.15905 C1220.72884,1724.96846 1221.96235,1725.77786 1222.83137,1726.34866 L1222.83137,1729.91745 C1224.0412,1730.65898 1225.15836,1731.45398 1226.37025,1732.05975 C1227.7129,1732.73237 1227.26501,1734.17326 1227.86117,1735.18733 C1228.94847,1737.03857 1229.91634,1738.91964 1231.71409,1740.35744 L1231.71409,1744.53817 C1232.3535,1745.43088 1232.89303,1746.18372 1233.30489,1746.75863 C1233.27503,1749.07783 1230.96863,1749.4162 1230.3354,1751.52148 C1230.40954,1751.7066 1230.48882,1752.5664 1230.95628,1752.93768 C1232.17023,1753.90135 1231.7388,1755.59318 1232.93113,1756.66999 C1233.56848,1757.24593 1233.24826,1758.87914 1233.33578,1759.77803 C1233.12402,1759.98955 1232.94394,1760.16942 1232.78153,1760.33165 L1232.19276,1760.91974 C1232.09924,1761.01315 1232.00525,1761.10704 1231.90664,1761.20554 L1231.90664,1765.42329 C1230.93424,1766.06999 1229.99595,1766.69374 1229.06729,1767.31141 L1227.21558,1768.54367 C1227.86632,1769.24303 1228.36261,1769.77577 1228.92891,1770.38257 C1228.80947,1773.60065 1224.87521,1774.24344 1224.26257,1777.36999 C1223.71274,1780.17257 1219.60035,1779.61925 1218.43376,1782.24905 C1218.80031,1784.77291 1217.20025,1786.65604 1216.22724,1788.7428 C1215.60636,1790.07261 1215.57341,1790.05822 1215.72889,1792.7672 C1215.86056,1792.89833 1215.99208,1793.02961 1216.13214,1793.16949 L1216.58665,1793.6234 C1216.69721,1793.73377 1216.81542,1793.85172 1216.94387,1793.97977 C1216.66817,1794.25516 1216.40261,1794.56123 1216.13937,1794.8744 L1215.74526,1795.3465 C1215.02233,1796.21095 1214.28727,1797.03971 1213.37719,1797.34183 C1211.88832,1797.8355 1210.86898,1798.61096 1209.48926,1799.92741 C1209.54692,1800.77281 1209.38423,1802.02343 1209.78167,1803.05909 C1210.09469,1803.87673 1211.19846,1804.36731 1210.99974,1805.52536 C1210.77116,1806.85312 1211.20876,1807.91758 1212.35887,1808.66322 C1210.85147,1809.66598 1209.36776,1810.65331 1208.0354,1811.53985 L1208.0354,1820.72511 C1209.02077,1822.24621 1210.50551,1822.94455 1212.32283,1823.4053 L1212.32283,1826.8445 C1211.26539,1828.04061 1209.90523,1826.95455 1207.3476,1828.4016 C1207.49278,1828.30184 1208.2784,1829.66353 1207.69562,1831.58883 C1207.15506,1831.9817 1205.96376,1832.84665 1205.07312,1833.49253 L1205.07312,1835.71505 C1205.83505,1835.98039 1206.68554,1836.27659 1207.53602,1836.57279 C1207.69871,1837.00063 1207.9973,1837.42745 1208.00039,1837.85735 C1208.0354,1842.05967 1208.02202,1846.26303 1208.02202,1850.43038 C1208.19362,1850.6018 1208.35811,1850.7661 1208.53998,1850.94776 L1209.35128,1851.75814 C1209.42954,1852.66833 1209.53147,1853.83976 1209.64473,1855.15003 C1210.45094,1855.44211 1211.31069,1855.75271 1212.43403,1856.15896 L1212.43403,1865.2424 C1213.72829,1866.55164 1215.04109,1865.76075 1216.38786,1866.07649 C1216.65042,1866.8355 1216.77707,1867.81974 1217.28674,1868.52836 C1217.99925,1869.52083 1218.99801,1870.30864 1219.89585,1871.20649 L1219.89585,1877.40713 C1221.11701,1878.21859 1222.46069,1879.11336 1224.10297,1880.20457 C1224.11018,1881.87891 1225.63611,1883.73633 1225.70819,1885.66265 C1225.7988,1888.07956 1228.33172,1889.03295 1227.63774,1891.2421 C1228.71268,1891.31306 1229.19559,1891.34494 1229.67746,1891.37683 C1230.37865,1892.07721 1231.07983,1892.77657 1231.79646,1893.49342 L1231.79646,1898.12976 C1232.60576,1898.40333 1233.4614,1898.69233 1234.52914,1899.05229 C1234.62283,1899.63235 1234.50134,1900.51169 1234.88539,1900.95702 C1236.17554,1902.45241 1238.26777,1903.56624 1238.88555,1905.25293 C1239.61145,1907.23582 1240.96749,1908.40725 1242.2113,1909.84196 L1242.2113,1912.79675 C1241.72016,1913.32333 1241.22181,1913.85813 1240.70081,1914.41659 L1240.70081,1917.31173 L1239.75073,1918.26128 C1239.43689,1918.5749 1239.12649,1918.88505 1238.82129,1919.18997 L1237.92307,1920.08731 C1237.48352,1920.52639 1237.05966,1920.94977 1236.65741,1921.35156 C1235.89444,1923.04442 1235.23753,1924.50176 1234.73712,1925.61251 C1235.72249,1926.79319 1236.48546,1927.70647 1237.4142,1928.81928 C1238.38927,1928.19397 1239.16356,1927.69824 1240.04802,1927.13053 C1241.10649,1927.40616 1240.54843,1928.5817 1240.90674,1929.33043 C1242.77246,1930.20668 1244.63714,1931.08397 1246.68304,1932.04558 C1246.68304,1932.92287 1246.27839,1934.26605 1246.76026,1934.78234 C1248.09056,1936.20677 1247.83006,1938.52083 1249.65665,1939.56472 L1249.65575,1941.06873 C1249.6557,1941.24018 1249.65567,1941.4138 1249.65566,1941.59027 L1249.65562,1942.68921 C1247.36363,1943.77219 1246.89309,1946.3557 1245.32288,1948.71501 L1245.32288,1957.11863 C1244.66597,1957.83856 1244.02038,1958.54718 1243.43555,1959.18791 C1241.96933,1959.96029 1240.48047,1959.47074 1239.04927,1959.61576 C1238.82069,1959.66204 1238.51591,1959.63118 1238.37588,1959.76797 C1237.66543,1960.45859 1236.96167,1961.15589 1236.32123,1961.7947 L1235.53716,1962.57866 C1235.45491,1962.66105 1235.37444,1962.74167 1235.29593,1962.82033 L1234.64652,1963.47046 C1233.03924,1964.28706 1232.01578,1964.80644 1230.56192,1965.54488 L1226.58544,1965.54488 C1225.92956,1966.23704 1225.25103,1966.95388 1224.52204,1967.72318 C1224.40569,1968.80204 1224.27904,1969.97244 1224.12563,1971.38967 L1217.57916,1971.38967 C1216.07279,1973.8148 1217.79641,1976.45591 1216.32814,1978.9047 L1211.60002,1978.9047 C1211.32923,1979.59171 1211.1614,1980.0175 1210.88545,1980.71789 C1211.356,1981.33086 1211.91921,1982.06313 1212.48346,1982.79745 C1212.44639,1983.27878 1212.40932,1983.75804 1212.37123,1984.24348 C1211.74942,1984.98042 1210.98417,1984.93479 1210.21108,1984.86776 L1209.87967,1984.83995 C1209.54857,1984.81526 1209.21958,1984.80661 1208.90339,1984.87393 C1207.30024,1986.35184 1205.81343,1988.01899 1204.03215,1989.26549 C1202.75745,1990.15718 1201.08634,1990.48423 1199.581,1991.0684 C1198.55239,1992.0691 1199.87342,1994.35642 1197.70088,1994.28648 C1197.37551,1995.84358 1198.14568,1997.17751 1196.96571,1998.14735 C1196.23878,1997.61461 1195.517,1997.08495 1195.06602,1996.75378 C1194.39881,1996.75378 1194.02093,1996.64887 1193.92312,1996.77023 C1192.71226,1998.26151 1190.80639,1999.16451 1189.9662,2001.38909 C1190.49647,2002.07096 1191.06277,2002.80118 1191.64246,2003.54785 L1191.64246,2010.86849 C1190.38938,2012.12939 1189.16823,2013.35841 1187.95119,2014.58229 C1187.44358,2014.58229 1186.94935,2014.58229 1186.45409,2014.58435 C1186.10401,2014.93506 1185.75368,2015.28551 1185.39652,2015.64252 L1184.29802,2016.74002 C1184.75106,2017.2522 1185.20616,2017.76643 1185.66641,2018.28581 C1185.35855,2018.61389 1185.02906,2018.96357 1184.69958,2019.31222 C1184.54204,2019.49426 1184.25065,2019.67733 1184.24962,2019.8604 C1184.22491,2024.80322 1184.23006,2029.74707 1184.23006,2034.63436 C1183.82438,2035.03957 1183.33015,2035.32754 1183.14894,2035.75024 C1182.42716,2037.43282 1183.03259,2039.50724 1181.33162,2040.99338 C1180.84048,2041.42328 1181.25645,2042.88782 1181.25645,2043.87824 L1181.25645,2055.43206 C1180.67368,2056.01314 1180.3236,2056.36385 1179.71096,2056.97579 L1179.71096,2064.40237 L1179.33792,2064.77511 C1179.28106,2064.83195 1179.22656,2064.88643 1179.17398,2064.939 L1178.8781,2065.23488 C1178.69155,2065.42144 1178.52172,2065.59128 1178.34051,2065.77229 L1178.34051,2071.60885 C1177.8226,2072.17348 1177.33146,2072.71034 1176.8084,2073.28217 L1176.8084,2080.25108 C1175.86113,2081.98302 1175.08375,2083.40642 1174.30637,2084.82879 C1174.2693,2084.80822 1174.23223,2084.78868 1174.19516,2084.76811 C1174.07058,2084.96455 1173.86053,2085.1507 1173.83891,2085.35845 C1173.78537,2085.84698 1173.8214,2086.34579 1173.8214,2086.84151 L1173.8214,2100.30725 C1174.59055,2100.50575 1175.25776,2100.67853 1175.87451,2100.83794 C1176.50156,2100.2548 1177.03595,2099.75599 1177.56415,2099.26439 L1180.52335,2099.26439 L1181.60756,2100.34839 C1182.30911,2100.83619 1183.06584,2100.81286 1183.8122,2100.73507 L1184.21788,2100.68998 C1184.48713,2100.65998 1184.75342,2100.63376 1185.01362,2100.63328 C1185.56139,2100.17972 1186.06488,2099.76217 1186.50145,2099.40014 C1187.1769,2099.94215 1187.73085,2100.38645 1188.17153,2100.74024 C1189.38651,2100.74024 1189.38651,2100.74024 1192.38071,2097.79779 L1196.74125,2097.79779 C1199.05692,2095.51253 1201.33449,2093.26533 1203.60279,2091.02841 L1203.60279,2087.86278 C1204.25043,2087.6612 1204.90735,2087.45756 1205.88448,2087.15313 C1207.23022,2085.90149 1208.60479,2083.73656 1210.50139,2083.08451 C1212.84074,2082.28025 1213.90025,2080.43106 1215.52811,2079.07451 C1217.17245,2077.70562 1218.28755,2075.93048 1219.34911,2074.00827 C1220.38391,2072.1344 1222.38553,2070.79327 1223.95265,2069.22692 C1224.6806,2067.53508 1225.40238,2065.85354 1226.24463,2063.89636 C1228.28126,2062.70231 1229.40049,2060.14759 1232.10227,2058.99365 C1234.2151,2058.09168 1235.90268,2055.96378 1237.49451,2054.1331 C1239.19033,2052.18312 1240.55152,2049.94209 1242.24425,2047.56838 L1242.24425,2045.01058 C1244.19336,2043.06369 1246.12085,2041.13737 1248.04835,2039.21207 C1247.9217,2037.19216 1249.24479,2035.8788 1250.81705,2035.48696 C1252.45933,2035.07763 1253.87406,2034.04813 1253.97909,2032.92812 C1254.22826,2030.25102 1257.7517,2029.68022 1257.41809,2026.88073 C1259.30969,2025.23576 1260.38296,2023.11191 1261.36775,2020.92886 L1261.73433,2020.10826 C1262.34313,2018.7387 1262.95301,2017.3665 1263.74216,2016.09414 L1265.38959,2016.09414 C1266.21433,2014.28404 1267.06276,2012.42148 1267.96575,2010.43859 C1268.03062,2010.39334 1268.20669,2010.18044 1268.41674,2010.13931 C1268.88625,2010.0488 1269.37225,2010.04366 1269.85103,2010.00355 C1271.37122,2008.62981 1270.37089,2007.75823 1269.4324,2006.84085 L1269.24629,2006.65661 C1268.94004,2006.34797 1268.65978,2006.03018 1268.50117,2005.68295 C1271.58083,2002.93488 1272.45397,1998.86728 1275.97328,1996.68796 L1278.63491,1996.68796 C1279.25784,1996.17886 1279.75825,1995.77056 1280.25454,1995.36535 C1281.51894,1996.51003 1280.42855,1997.86144 1281,1998.86523 C1280.35441,1999.5111 1279.81076,2000.0202 1279.30727,2000.56529 C1278.66786,2001.25539 1277.85444,2001.76654 1277.84415,2002.95442 C1277.839,2003.55093 1277.1512,2004.14127 1276.54885,2005.08438 L1276.54885,2012.51198 C1275.57378,2013.19592 1274.36807,2014.04235 1273.48567,2014.66251 L1273.48567,2018.18399 C1272.96673,2018.73834 1272.46735,2019.27314 1271.95356,2019.82234 L1271.95356,2022.75759 C1271.59627,2023.11447 1271.24619,2023.46518 1270.89406,2023.81486 C1270.09402,2025.17758 1270.63459,2026.67092 1270.47396,2028.10049 C1269.10454,2030.75806 1267.73511,2033.41562 1266.08974,2036.60902 L1266.08974,2040.70952 C1265.08687,2041.49836 1263.92955,2042.40753 1263.02759,2043.1182 L1263.02759,2053.95826 L1262.52726,2054.45802 C1262.3015,2054.68352 1262.04142,2054.94331 1261.69935,2055.28499 C1261.29676,2057.63813 1261.7673,2060.33169 1261.43988,2062.97177 L1261.00123,2063.40992 L1260.111,2064.29913 C1259.65834,2064.75128 1259.19114,2065.21794 1258.69485,2065.71367 L1258.69485,2070.47136 C1258.83282,2071.10387 1260.72428,2071.46795 1259.63491,2073.61642 C1259.62256,2073.62979 1259.13863,2074.16871 1258.6063,2074.76419 L1258.6063,2079.09611 C1258.08427,2079.65971 1257.58798,2080.1976 1257.07522,2080.75194 L1257.07522,2085.15893 C1256.99354,2085.24052 1256.91272,2085.32125 1256.82968,2085.40419 L1256.57081,2085.66268 C1256.52552,2085.70789 1256.47892,2085.75442 1256.43059,2085.80265 L1255.93907,2086.29306 C1255.87701,2086.35497 1255.81208,2086.41972 1255.74389,2086.48771 L1255.74389,2092.43021 L1254.27459,2093.89886 L1254.27459,2104.63505 C1253.31806,2105.24905 1252.07528,2106.04611 1251.76947,2106.24358 C1250.76217,2108.40598 1251.45237,2109.24229 1252.19536,2109.96751 L1252.35478,2110.12166 C1252.43429,2110.19832 1252.51306,2110.27471 1252.58907,2110.35231 C1252.26782,2110.70302 1251.9476,2111.0527 1251.61709,2111.41369 C1251.46264,2111.82817 1251.16919,2112.25601 1251.16507,2112.68694 C1251.12801,2116.39354 1251.14345,2120.10014 1251.14345,2123.72036 C1251.69328,2124.32715 1252.1803,2124.86607 1252.71469,2125.45641 C1252.62268,2126.108 1252.32796,2126.71688 1252.0124,2127.32321 L1251.72767,2127.86931 C1251.1666,2128.96445 1250.71475,2130.09036 1251.43278,2131.48118 C1251.57384,2131.6226 1251.73215,2131.78073 1251.93177,2131.97999 L1252.67865,2132.72563 L1252.67865,2138.66813 L1252.87357,2138.86287 L1253.64842,2139.63755 C1253.78323,2139.77236 1253.9125,2139.9016 1254.04807,2140.03702 C1253.59812,2140.54714 1253.14405,2141.06137 1252.64879,2141.62292 L1252.64879,2151.95081 C1253.00504,2152.20278 1253.351,2152.53806 1253.76389,2152.7129 C1254.18502,2152.89185 1254.67307,2152.9114 1255.37528,2153.04818 C1255.89628,2155.61421 1255.42676,2158.30674 1255.6502,2160.94888 C1255.78341,2161.08194 1255.91604,2161.21428 1256.05895,2161.3569 L1256.90945,2162.2067 C1257.00212,2163.15598 1257.11641,2164.32535 1257.23173,2165.49986 L1257.38219,2165.65016 L1257.85953,2166.12713 C1258.03031,2166.29787 1258.21665,2166.48425 1258.43023,2166.69802 L1258.43023,2172.37312 C1258.92755,2172.99534 1259.3703,2173.54866 1259.96234,2174.29018 L1259.96234,2177.19561 C1259.66066,2177.54837 1259.19423,2178.09346 1258.63719,2178.74551 L1258.63719,2181.66328 C1259.03772,2182.10038 1259.52783,2182.63724 1260.05089,2183.2101 L1260.05089,2186.13712 C1258.88533,2188.08504 1256.62012,2188.5458 1254.7297,2189.66683 C1254.38271,2189.35006 1253.85965,2188.87182 1253.316,2188.37507 L1245.92831,2188.37507 C1245.74812,2188.19457 1245.57025,2188.01691 1245.38762,2187.83448 L1244.81836,2187.26535 C1239.57644,2186.7614 1235.74823,2183.02394 1229.57656,2180.98655 L1228.53559,2180.98655 C1226.16638,2179.29986 1223.9475,2177.91657 1221.96647,2176.25353 C1220.14606,2174.72626 1217.40309,2174.48765 1216.40022,2172.06663 L1212.17559,2172.06663 C1209.79918,2170.37583 1207.57824,2168.9946 1205.59721,2167.32745 C1203.75621,2165.77857 1201.5085,2165.21292 1199.46157,2164.28935 C1199.26593,2163.54371 1199.23504,2162.78161 1198.88085,2162.22521 C1198.35779,2161.40655 1197.60512,2160.73393 1197.06765,2160.13228 L1195.23282,2160.13228 C1194.38852,2158.26663 1193.53803,2156.38968 1192.60312,2154.32348 C1191.75469,2154.27926 1190.8033,2154.22989 1189.45447,2154.15893 C1187.7432,2152.19352 1185.81983,2149.98129 1184.37936,2148.32648 C1182.90285,2148.25757 1182.41686,2148.23495 1181.75274,2148.20306 C1181.55917,2147.60449 1181.34809,2146.95039 1180.99184,2145.84684 C1179.53592,2144.50777 1177.72684,2142.84268 1175.65314,2140.93487 C1174.47832,2140.91636 1172.77838,2140.45869 1171.00533,2141.32775 L1171.00533,2150.46467 C1171.18346,2150.69093 1171.62003,2151.2463 1172.36858,2152.19764 L1172.36858,2160.93757 C1172.50472,2161.07356 1172.6279,2161.19659 1172.74175,2161.31033 L1173.75139,2162.31983 L1173.75139,2182.98692 C1174.26518,2183.55978 1174.74911,2184.09869 1175.28144,2184.69212 L1175.28144,2195.02412 C1174.81398,2195.53116 1174.31769,2196.06802 1173.82655,2196.59974 C1173.26849,2198.14038 1174.77794,2198.6865 1175.36999,2199.81782 L1175.36999,2206.93482 C1175.8776,2207.55191 1176.29049,2208.05277 1176.69308,2208.54232 L1176.42818,2208.80693 L1175.45854,2209.77648 L1175.45854,2230.87244 C1175.95791,2231.37228 1176.30902,2231.72196 1176.72191,2232.13438 C1176.2771,2232.64347 1175.82818,2233.15565 1175.33189,2233.72439 L1175.33189,2261.87359 C1175.80347,2262.38474 1176.29975,2262.9216 1177.00403,2263.68472 C1176.68175,2264.4098 1176.31005,2265.24594 1175.93938,2266.08209 C1174.95813,2267.35122 1175.39676,2268.83736 1175.32468,2270.27001 C1175.25055,2271.75101 1175.30821,2273.2392 1175.30821,2274.73563 C1174.23223,2276.23411 1173.78948,2278.06067 1172.65173,2279.59823 C1171.89185,2280.62567 1171.83213,2282.39361 1173.17067,2283.54035 C1174.32902,2284.53179 1173.59385,2285.84206 1173.85538,2287.02275 C1173.37042,2287.55858 1172.8834,2288.09647 1172.35519,2288.67961 L1172.35519,2293.03312 C1171.83831,2293.59261 1171.34305,2294.1305 1170.82411,2294.69204 L1170.82411,2300.56563 C1170.45035,2300.93896 1170.09925,2301.28967 1169.74814,2301.63935 C1169.6184,2302.08056 1169.38982,2302.51972 1169.3785,2302.96402 C1169.33422,2304.67848 1169.36099,2306.39396 1169.36099,2307.98912 C1170.38652,2308.93737 1171.40689,2309.72003 1170.59347,2311.2072 C1169.05107,2312.2007 1167.2945,2311.47872 1165.47306,2311.71115 C1164.83159,2312.57404 1163.75459,2313.44515 1163.51365,2314.50653 C1163.26242,2315.61419 1162.54991,2316.13151 1161.95374,2316.84835 C1161.01471,2317.97761 1159.35492,2317.68656 1158.29542,2318.88781 C1157.30285,2320.01192 1157.76104,2321.77575 1156.27217,2322.54916 C1154.83582,2323.29583 1153.45301,2324.14534 1151.96003,2325 L1138.90416,2325 C1137.66928,2324.45125 1137.18959,2323.41778 1136.75973,2322.36182 L1136.5765,2321.90924 C1136.23862,2321.08192 1135.86931,2320.2815 1135.1264,2319.73218 L1135.1264,2312.39302 C1133.69108,2310.95934 1132.28974,2309.55856 1130.84515,2308.11562 C1131.3785,2305.59176 1129.41188,2303.81045 1128.69937,2301.63112 C1128.35547,2300.58003 1126.61229,2299.9578 1126.33325,2298.91802 C1125.66193,2296.42193 1123.94036,2294.46064 1123.23094,2292.01597 C1123.04354,2291.37111 1122.44017,2290.84762 1121.86666,2290.04233 L1121.86666,2286.48177 C1119.76722,2282.37304 1117.90769,2278.73123 1116.04094,2275.07708 L1116.17997,2274.93788 L1116.47638,2274.64163 C1116.52837,2274.58969 1116.58184,2274.53629 1116.63707,2274.48112 L1117.189,2273.92931 L1117.189,2269.09859 C1117.07368,2268.55453 1115.2821,2268.14211 1115.89165,2266.44411 C1116.26026,2266.02655 1116.73698,2265.48557 1117.27858,2264.87158 L1117.27858,2247.09449 C1116.83789,2246.62242 1116.33851,2246.08865 1115.8309,2245.54561 L1115.8312,2214.87011 C1115.83136,2209.75534 1115.83158,2204.63997 1115.83193,2199.5247 L1116.00906,2199.34777 C1116.18943,2199.16761 1116.38452,2198.97274 1116.63924,2198.71831 L1117.24151,2198.11673 C1117.41346,2196.34056 1117.32079,2194.17461 1117.25283,2192.10224 C1116.76787,2191.5263 1116.3416,2191.02029 1115.92151,2190.52148 C1116.36116,2190.08233 1116.71227,2189.73265 1117.189,2189.25544 L1117.189,2177.29229 C1116.94188,2176.99197 1116.48884,2176.44174 1115.91327,2175.74341 L1115.91327,2172.83284 C1116.25923,2172.43997 1116.73698,2171.89797 1117.27755,2171.28397 L1117.27755,2141.70622 C1117.79443,2141.15394 1118.2938,2140.61913 1118.80039,2140.07713 L1118.80039,2137.16965 C1118.30822,2136.62764 1117.83973,2136.10929 1117.37227,2135.59403 C1117.45922,2135.50718 1117.54419,2135.42232 1117.63047,2135.33614 L1117.89656,2135.07044 C1118.12709,2134.84028 1118.38647,2134.58145 1118.72625,2134.24262 L1118.72625,2113.44492 C1118.8789,2113.29219 1119.01533,2113.15573 1119.14139,2113.02964 L1120.15437,2112.01638 L1120.15437,2102.74678 C1119.15973,2102.38168 1118.30204,2102.06697 1116.82244,2101.52496 C1118.30513,2100.48312 1119.47377,2099.66138 1120.29749,2099.08235 L1120.29749,2089.59163 C1120.65477,2089.23476 1121.00485,2088.88508 1121.35699,2088.5354 C1121.49805,2088.0983 1121.75649,2087.66223 1121.75752,2087.2241 C1121.76679,2085.01083 1121.72148,2082.79654 1121.6525,2080.5843 C1121.64735,2080.40329 1121.32507,2080.23359 1121.26432,2080.17291 C1120.81952,2080.61736 1120.37469,2081.06185 1119.92847,2081.50774 L1118.58424,2082.85101 C1117.68346,2083.75115 1116.7716,2084.66237 1115.83765,2085.59559 L1114.4188,2087.01328 C1113.46003,2087.97123 1112.47367,2088.95663 1111.44874,2089.9804 C1111.43535,2090.21591 1111.38078,2091.16416 1111.34886,2091.72468 C1109.617,2093.43914 1108.06018,2094.97978 1106.93376,2096.09567 L1106.93376,2099.82696 C1105.76202,2102.30968 1102.63191,2102.05051 1101.11421,2104.38205 L1101.11421,2110.22273 C1100.50261,2110.83981 1099.79833,2111.48157 1099.17849,2112.19739 C1098.72338,2112.72396 1098.33933,2113.32356 1097.99646,2113.93241 C1097.54238,2114.73565 1097.15936,2115.58002 1096.51892,2116.86252 L1096.51892,2120.72648 C1092.62172,2122.73302 1092.62172,2122.73302 1090.32253,2128.44926 C1088.39607,2130.37455 1086.37694,2132.21962 1084.57609,2134.25599 C1083.51144,2135.4593 1082.59197,2136.88476 1081.98036,2138.3637 C1081.7251,2138.98044 1081.68461,2139.68432 1081.6729,2140.40144 L1081.66558,2141.01763 C1081.66111,2141.32563 1081.65217,2141.63217 1081.62411,2141.93146 C1081.57983,2142.39633 1081.46966,2142.85605 1081.35228,2143.53587 C1080.752,2143.65826 1080.07553,2143.79607 1079.25593,2143.96269 C1078.15009,2145.06726 1076.92379,2146.29217 1075.68925,2147.5253 L1075.68925,2150.67756 C1074.87995,2150.95216 1074.0202,2151.24528 1072.80007,2151.65975 C1072.74962,2152.68616 1072.69299,2153.85347 1072.63636,2155.0249 C1072.09184,2156.16296 1071.08599,2156.6436 1070.05169,2157.08243 L1069.57387,2157.28423 C1068.7794,2157.6231 1068.0075,2157.99327 1067.4552,2158.67494 C1065.15291,2158.76441 1064.22212,2160.12302 1063.71347,2162.23858 C1063.62904,2162.58792 1063.38879,2162.88298 1063.12578,2163.17624 L1062.92632,2163.39668 C1062.46068,2163.91407 1062.02718,2164.46616 1062.3389,2165.33427 C1060.02941,2167.63599 1057.71375,2169.87394 1055.48766,2172.19725 C1054.52494,2173.20206 1054.78338,2174.91035 1053.39645,2175.80923 C1052.3802,2176.46848 1051.61723,2177.51752 1050.74101,2178.39275 C1050.3205,2178.81277 1049.89999,2179.2328 1049.49741,2179.63492 L1048.90922,2180.22244 C1048.81418,2180.31738 1048.72081,2180.41064 1048.62941,2180.50194 L1047.86727,2181.26321 C1047.04459,2183.05171 1046.37738,2184.50288 1045.17682,2187.11417 C1044.67744,2187.58418 1042.75613,2188.70007 1041.94786,2190.35796 C1041.19313,2191.9058 1040.38795,2193.23561 1039.18327,2194.40498 C1037.76133,2195.78416 1036.37543,2197.20036 1034.97409,2198.60114 C1034.30276,2198.77598 1033.63246,2198.95288 1032.84067,2199.1596 C1032.70578,2199.77874 1032.55855,2200.45444 1032.4041,2201.1682 C1030.50853,2203.06161 1028.58104,2204.98588 1026.90581,2206.66125 C1026.57735,2207.61567 1026.54955,2208.5125 1026.09342,2208.8776 C1024.53248,2210.12925 1025.47151,2212.99354 1022.97566,2213.59828 L1019.66845,2213.59828 C1018.65837,2214.69668 1017.54533,2216.02135 1016.30872,2217.21849 C1014.91974,2218.56167 1013.60797,2220.32035 1011.91421,2220.92303 C1010.94665,2221.26769 1010.29682,2221.87063 1009.69201,2222.49408 L1009.29248,2222.91015 C1008.89363,2223.32403 1008.48786,2223.72356 1007.99436,2224.03827 C1005.28846,2223.40267 1004.98163,2226.84907 1002.55476,2227.15041 C1000.87129,2227.35817 999.450385,2229.37499 997.739118,2229.71953 C996.194011,2230.02936 995.228077,2230.93176 994.310408,2231.87785 L993.944656,2232.25731 C993.518012,2232.69971 993.086463,2233.13568 992.596053,2233.50944 C992.60532,2236.60925 989.932368,2237.03297 987.953394,2238.14064 C987.357231,2238.47489 986.733268,2238.75772 986.110334,2239.06934 C985.432829,2238.49854 984.885059,2238.03676 984.238444,2237.49167 C983.604184,2238.08613 982.926679,2238.72172 982.097816,2239.49822 C982.05869,2240.32202 982.013386,2241.2785 981.963963,2242.30594 C980.399936,2243.72728 978.775159,2245.20416 977.538559,2246.32828 L977.537746,2248.14669 C977.537673,2248.18316 977.537592,2248.21875 977.537504,2248.25367 L977.536884,2248.45698 C977.536765,2248.49012 977.536637,2248.52303 977.536499,2248.55594 C976.834283,2249.25633 976.133096,2249.95672 975.37219,2250.71676 L971.02195,2250.71676 C970.454617,2251.23305 969.916114,2251.7226 969.340543,2252.24712 L966.416358,2252.24712 C966.079665,2251.92521 965.724438,2251.58581 965.283751,2251.16414 C963.772236,2250.33931 962.052733,2250.906 960.384711,2250.83195 C960.034633,2251.18368 959.684554,2251.53336 959.301527,2251.91595 C957.701463,2252.59166 956.021086,2252.26563 954.353064,2252.12267 C953.805295,2251.57553 953.805295,2251.57553 954.994532,2250.24572 C955.743082,2247.44314 954.807137,2244.23534 955.445515,2241.02344 C957.068232,2240.33436 956.285704,2237.95551 957.864146,2236.96818 C958.752304,2236.41281 959.167952,2235.51973 959.566307,2234.60147 L959.766151,2234.1417 C959.86746,2233.91221 959.97243,2233.6844 960.088174,2233.46316 C960.838784,2232.02742 962.388396,2231.00615 963.26977,2230.12578 C965.477324,2229.47578 966.23926,2232.64038 968.477703,2230.92592 C968.555956,2229.47887 968.646564,2227.81378 968.737173,2226.14869 C969.963477,2224.92378 971.244353,2223.74721 972.399612,2222.45751 C972.57141,2222.26553 972.768384,2222.0872 972.972643,2221.91214 L973.220107,2221.70299 C974.049009,2221.00662 974.879983,2220.29631 974.568039,2218.90826 C975.826263,2217.72449 977.085516,2216.54073 978.388014,2215.31582 C978.751478,2215.64699 979.270418,2216.11905 979.790387,2216.59215 C981.001247,2215.38267 982.227551,2214.15673 983.47136,2212.91434 L983.47136,2211.48066 C983.986181,2210.92426 984.481439,2210.3874 985.003468,2209.82379 L985.003468,2205.48983 C986.267869,2204.20527 987.482848,2202.9711 988.694737,2201.74003 C989.208529,2201.74003 989.86647,2201.94366 990.165067,2201.703 C991.122635,2200.92856 991.824851,2199.78696 992.854494,2199.1668 C994.142577,2198.3903 993.454775,2196.82497 994.413373,2196.0711 C995.282391,2195.3882 995.155745,2194.35356 995.557306,2193.57398 C995.876495,2192.95279 997.264453,2192.97438 997.961521,2192.43341 C999.08795,2191.55921 1000.1804,2190.54103 1000.06817,2188.68361 C1001.8999,2186.85499 1003.81916,2184.9369 1005.79607,2182.96224 C1005.81564,2182.59096 1005.84138,2182.10655 1005.85991,2181.76201 C1007.70091,2179.34614 1010.55611,2177.92479 1011.70004,2175.12324 C1012.78014,2172.47494 1015.66108,2171.39196 1016.81634,2169.0635 C1018.02274,2166.63203 1019.79186,2164.7905 1021.60175,2162.95325 L1022.32664,2162.2172 C1022.4474,2162.0941 1022.56804,2161.97067 1022.68839,2161.84674 C1023.02405,2161.50117 1023.62228,2161.09081 1023.58933,2160.75964 C1023.3556,2158.35303 1026.00487,2157.87684 1026.63192,2156.05234 C1027.15189,2154.54255 1027.59567,2152.89905 1028.53367,2151.66386 C1029.86809,2149.90518 1031.62569,2148.46635 1033.20207,2146.89074 L1034.64769,2146.79098 C1035.48582,2145.24621 1035.48582,2145.24621 1035.53215,2143.52764 C1035.77618,2143.13374 1035.94504,2142.65344 1036.27864,2142.36136 C1036.59947,2142.07993 1036.89871,2141.77848 1037.19531,2141.47535 L1037.55119,2141.11196 C1038.44381,2140.20736 1039.38105,2139.35374 1040.87497,2139.0466 C1041.94683,2138.82651 1043.40583,2137.44836 1043.00839,2135.61049 C1044.39635,2134.00608 1046.60802,2132.98686 1046.1591,2130.44963 L1048.17308,2130.44963 C1048.93295,2127.44753 1051.54001,2125.86471 1052.76734,2124.42177 C1054.18001,2121.23866 1055.01196,2118.80222 1057.1217,2117.07439 L1058.591,2117.07439 C1059.75347,2114.81793 1060.91285,2112.56764 1062.28639,2109.90184 L1062.28639,2105.85482 C1063.47151,2104.7019 1064.56911,2103.27747 1065.99413,2102.35596 C1066.91077,2101.76268 1066.42923,2100.27028 1067.0101,2099.58722 C1067.09915,2098.48451 1067.76213,2097.95699 1068.99727,2098.00274 C1069.02974,2098.87941 1068.77284,2099.46784 1068.2273,2099.76732 L1068.178,2099.24485 C1068.26449,2100.18898 1068.34995,2101.11666 1068.42306,2101.92092 C1070.75417,2099.59144 1072.96172,2097.3864 1075.65836,2094.69284 L1075.65981,2094.6579 C1075.66685,2094.5235 1075.67651,2094.33943 1075.68616,2094.15392 C1076.67153,2093.0874 1078.15421,2092.16898 1078.55371,2090.90705 C1079.39905,2088.24434 1081.23181,2086.07118 1081.89696,2083.43008 C1082.40735,2082.83625 1082.95837,2082.28104 1083.51898,2081.73657 L1084.08163,2081.19463 C1085.7723,2079.57336 1087.45616,2077.96503 1088.29516,2075.61679 C1088.54537,2074.91744 1089.28671,2073.89925 1090.53464,2073.97022 C1090.94855,2073.99387 1091.74858,2073.6627 1091.75064,2073.48786 C1091.77021,2071.51629 1093.63901,2070.75831 1094.35461,2069.33799 C1095.22569,2067.61119 1096.45714,2066.22276 1097.47237,2064.66668 C1098.35786,2063.31013 1098.88813,2061.74583 1100.19783,2060.61143 C1101.50445,2059.47909 1102.66795,2058.18116 1103.91484,2056.93568 L1103.91484,2052.5328 C1105.63023,2051.12997 1105.39547,2048.38807 1107.57316,2047.33904 C1108.24861,2044.90876 1110.14315,2043.39177 1111.75248,2041.63 C1112.11363,2041.23507 1112.49376,2040.8618 1112.87634,2040.49094 L1113.44997,2039.93405 C1114.40219,2039.0009 1115.31801,2038.02265 1115.93901,2036.69849 C1116.83274,2034.79377 1118.65315,2033.32409 1120.2388,2031.45741 L1120.2388,2028.53553 C1121.45481,2027.69939 1122.7779,2026.78919 1124.5633,2025.56017 L1124.5633,2020.05272 C1125.32935,2019.18572 1125.80711,2018.64475 1126.23853,2018.15622 L1126.23853,2014.10405 C1126.54639,2013.69987 1126.9706,2013.14038 1127.55853,2012.36697 C1127.65737,2011.46192 1127.78402,2010.29152 1127.90243,2009.20443 L1128.82956,2008.27762 C1129.43202,2007.67555 1130.00427,2007.10395 1130.55273,2006.55612 C1129.99363,2005.56673 1129.4438,2004.59586 1128.69113,2003.26399 C1130.51875,2002.91637 1131.87685,2002.65822 1133.25245,2002.39699 C1134.25532,2001.08775 1133.50368,2000.20121 1132.54303,1999.32495 C1131.83875,1998.68216 1131.19214,1997.97663 1130.64128,1997.42126 C1130.78646,1996.66327 1130.87501,1996.20458 1131.00165,1995.54327 C1131.60296,1995.41985 1132.28047,1995.28101 1133.09698,1995.11337 C1134.4211,1993.75682 1133.38836,1991.94054 1133.75801,1989.84658 C1134.6054,1989.1791 1135.76169,1988.26891 1136.6513,1987.56852 L1136.6513,1984.15297 C1137.16612,1983.59863 1137.66344,1983.0628 1138.38316,1982.28836 C1137.48531,1980.52351 1136.54937,1978.6846 1135.34777,1976.32221 C1136.04244,1976.01902 1136.94973,1975.62291 1137.56614,1975.35371 L1137.87049,1975.22078 C1137.9603,1975.18155 1138.03748,1975.14784 1138.09898,1975.12096 L1138.09898,1963.43961 C1139.12965,1962.35971 1140.13767,1961.30039 1141.16217,1960.22667 L1141.16217,1955.84847 L1142.31743,1954.6935 C1142.17637,1954.37571 1142.10017,1953.96329 1141.85924,1953.7072 C1140.8924,1952.67873 1139.87511,1951.69963 1138.87739,1950.70304 C1138.54379,1951.03627 1138.22151,1951.20699 1138.21636,1951.38698 C1138.17517,1952.86283 1138.19371,1954.34074 1138.19371,1955.78265 C1136.95814,1956.52624 1135.69373,1957.1248 1134.62805,1957.97226 C1133.4728,1958.89069 1132.50287,1960.04257 1131.17566,1961.36827 C1130.26855,1960.21227 1129.36246,1959.05627 1128.66848,1958.17179 C1126.24779,1957.90233 1125.17079,1960.9034 1123.13827,1959.74843 C1120.30881,1962.57466 1117.53084,1965.3505 1114.72918,1968.14897 C1114.84347,1968.2765 1115.3099,1968.80102 1115.7753,1969.32656 C1114.89804,1970.20282 1114.02182,1971.07805 1113.00041,1972.09726 L1113.00041,1976.87244 L1112.23828,1977.38012 C1111.44578,1977.90772 1110.5913,1978.47582 1109.93722,1978.91087 L1109.93722,1983.67988 C1108.86536,1985.52392 1107.93354,1987.12834 1106.87404,1988.95181 L1106.87404,1993.07289 C1106.0999,1993.88827 1105.22139,1993.8719 1104.35451,1993.7874 L1103.98403,1993.74924 C1103.30737,1993.6798 1102.64812,1993.63565 1102.06252,1993.9872 C1101.33971,1993.3444 1100.79914,1992.86308 1100.1968,1992.32828 L1096.98741,1992.32828 C1096.21003,1993.48325 1095.31012,1994.8182 1094.08793,1996.63242 C1093.02534,1996.69001 1091.35835,1996.77949 1089.69136,1996.86897 L1089.57431,1996.98619 L1088.75097,1997.8093 C1088.63788,1997.92227 1088.51471,1998.04531 1088.37856,1998.18129 L1080.94351,1998.18129 C1080.80737,1998.31728 1080.6842,1998.44037 1080.57098,1998.55353 L1080.25821,1998.86625 C1080.01746,1999.10701 1079.82017,1999.30438 1079.61939,1999.50493 C1078.15627,1999.37123 1078.85643,1998.14838 1078.54857,1997.37292 C1077.09368,1996.03899 1075.28769,1997.02941 1073.55068,1996.73424 C1073.07704,1996.30948 1072.53751,1995.8261 1071.94341,1995.29438 L1066.11769,1995.29438 C1065.55345,1994.77398 1065.01597,1994.27825 1064.45894,1993.76505 L1060.09119,1993.76505 C1059.51253,1993.2395 1058.97403,1992.75098 1058.40464,1992.23469 L1054.05851,1992.23469 C1052.59436,1990.7722 1051.19302,1989.37246 1049.76387,1987.94494 C1049.48072,1988.24011 1049.15021,1988.50546 1048.93604,1988.84485 C1048.82381,1989.02175 1048.99061,1989.35909 1048.9,1989.56786 C1048.71982,1989.98954 1048.44902,1990.37213 1048.20397,1990.79071 L1045.23654,1990.79071 C1044.19866,1989.80441 1043.13812,1988.79754 1042.13113,1987.84106 L1039.78252,1987.84106 C1038.79715,1988.38718 1037.79634,1988.94256 1036.75331,1989.52158 C1036.07066,1988.97855 1035.51671,1988.53734 1034.77228,1987.94494 L1026.41879,1987.94494 C1025.0334,1987.16048 1023.78123,1986.45064 1022.54889,1985.75208 L1021.31897,1985.05494 C1020.73928,1985.49513 1020.01132,1986.04844 1019.41001,1986.50611 C1018.67896,1986.1626 1018.18164,1986.05461 1017.86451,1985.75636 C1016.60217,1984.56848 1015.39646,1983.32197 1014.07131,1981.9973 L1011.40865,1981.9973 C1009.76329,1980.73743 1007.947,1979.79535 1008.59361,1977.52963 C1006.65582,1977.28794 1005.25448,1977.73841 1003.94992,1976.48368 C1003.02222,1975.59097 1001.49628,1975.34311 1000.30911,1974.55221 C999.429792,1973.96599 997.888417,1974.9492 996.923641,1973.79526 C997.887387,1972.60224 998.118027,1972.09829 998.352785,1970.56381 C997.516716,1970.27378 996.653875,1969.97553 995.791034,1969.67624 C995.324606,1967.09376 993.295181,1965.69092 991.736302,1964.24181 C990.855957,1964.00629 990.190808,1963.82734 989.510214,1963.64427 C990.496612,1961.90102 991.391371,1960.32129 992.390125,1958.55643 L992.390125,1955.92355 C991.861918,1955.33938 991.374897,1954.80046 990.684007,1954.03631 C991.075271,1953.27627 991.495365,1952.46275 992.370561,1950.76372 L992.370561,1947.01907 C993.671,1945.72731 994.978646,1946.50895 996.100957,1946.25389 C996.634312,1946.73829 997.153252,1947.2083 997.833846,1947.82744 C998.075812,1947.03141 998.275562,1946.37319 998.470165,1945.73348 C997.904891,1945.11126 997.415811,1944.57337 996.87113,1943.9748 C998.097434,1942.81468 999.345361,1941.63503 1000.62418,1940.42555 C1001.06075,1940.82151 1001.58072,1941.29358 1002.10068,1941.76462 C1002.44356,1941.42317 1002.79363,1941.07349 1003.14474,1940.72484 C1005.6859,1940.3299 1008.07467,1939.52667 1010.2431,1938.09093 L1010.2431,1936.62741 C1012.0738,1935.80464 1012.0738,1935.80464 1013.84582,1937.2013 C1014.13309,1936.92567 1014.66541,1936.65621 1014.67674,1936.36721 C1014.7519,1934.41209 1014.71587,1932.4508 1014.71587,1931.05517 C1016.18929,1929.38185 1017.32601,1928.09009 1018.39375,1926.8765 L1025.92662,1926.8765 C1026.54921,1926.25462 1027.14571,1925.65833 1027.77013,1925.03432 L1028.73445,1924.07083 C1029.21838,1924.46371 1029.7157,1924.86687 1030.32319,1925.36053 C1031.30444,1924.42668 1032.32996,1923.4517 1033.37402,1922.45819 L1036.29615,1922.45819 L1036.89353,1921.8615 C1036.99364,1921.7615 1037.09427,1921.66098 1037.19583,1921.55954 L1037.81921,1920.93686 C1038.24624,1920.51032 1038.70025,1920.05683 1039.20592,1919.55174 L1044.10084,1919.55174 C1044.28206,1918.65492 1044.42003,1917.97715 1044.58889,1917.14409 C1045.71841,1916.00558 1048.16381,1916.33777 1048.73835,1914.12245 C1048.67385,1914.06346 1048.60892,1914.00459 1048.54431,1913.94551 L1048.35218,1913.76737 C1047.59349,1913.04986 1046.98869,1912.25798 1047.83329,1910.84575 C1048.34091,1910.76141 1049.01635,1910.64931 1049.82977,1910.51561 C1050.15823,1911.45563 1050.45991,1912.31749 1050.7616,1913.17935 C1055.50413,1910.88894 1055.50413,1910.88894 1057.0105,1907.67086 C1057.5418,1908.14293 1058.05765,1908.60163 1058.61365,1909.09529 L1063.35722,1909.09529 C1063.64037,1907.66058 1063.93897,1906.1477 1064.28287,1904.40547 L1064.85725,1904.97921 C1064.91372,1905.03561 1064.96841,1905.09024 1065.02202,1905.14378 L1065.82939,1905.95024 L1069.17676,1905.95024 C1069.49183,1905.63552 1069.84191,1905.28584 1070.33511,1904.79424 L1074.89333,1904.79424 C1075.15898,1905.00713 1075.7119,1905.45246 1076.27614,1905.90601 C1077.17502,1905.40412 1078.12538,1904.8724 1079.73368,1903.97455 C1080.03743,1903.36261 1080.70876,1902.01531 1081.37185,1900.68036 C1080.98779,1900.29674 1080.63771,1899.94603 1080.21453,1899.52436 L1080.21453,1896.47289 C1082.13584,1895.87021 1083.76474,1894.56405 1085.14652,1892.93804 L1088.51139,1892.93804 C1090.2556,1894.90962 1087.93994,1895.55858 1087.68356,1896.4225 L1087.68356,1899.86478 C1088.42387,1900.01803 1089.10034,1900.1579 1089.62443,1900.26589 C1091.49014,1898.39304 1093.2323,1896.64259 1094.98887,1894.87876 L1094.98887,1892.21606 C1094.33093,1891.29764 1093.79346,1890.54788 1093.30746,1889.86909 C1094.33917,1887.75867 1096.00616,1886.68187 1097.3797,1885.33971 C1099.56975,1885.67397 1099.97852,1883.3486 1102.42701,1882.49291 L1106.32318,1882.49291 C1107.01304,1881.51792 1107.86455,1880.31667 1108.48955,1879.43321 L1112.06652,1879.43321 C1112.55252,1879.8806 1113.08587,1880.37221 1113.61923,1880.86382 C1114.8445,1879.63891 1116.0708,1878.414 1117.30741,1877.17881 L1117.30741,1875.72353 C1118.21864,1874.46674 1119.58395,1875.21855 1120.68566,1874.89767 C1121.43833,1874.6786 1122.07156,1874.05124 1123.02295,1873.43415 C1123.11047,1874.49142 1123.16607,1875.16301 1123.23609,1876.01355 C1122.48342,1876.20176 1121.81415,1876.36941 1121.04913,1876.5607 C1120.15952,1878.31835 1120.15952,1878.31835 1122.21365,1880.58613 L1122.46517,1880.48536 L1122.97158,1880.28784 C1124.74852,1879.60066 1126.54961,1878.91988 1127.63884,1877.08316 L1127.34765,1876.7923 L1126.13985,1875.5857 C1126.03411,1875.48005 1125.92665,1875.37267 1125.81714,1875.26323 L1124.76717,1874.21373 C1126.46608,1872.72965 1127.59251,1870.79819 1130.15426,1870.15848 C1131.81198,1869.74504 1131.97775,1867.55028 1132.79632,1866.15054 C1133.2854,1866.1094 1133.76418,1866.06826 1134.40256,1866.01375 C1135.99851,1864.30649 1137.67889,1862.5077 1139.57549,1860.47647 C1139.57858,1860.41476 1139.60123,1859.92933 1139.62697,1859.40686 C1140.10472,1858.89571 1140.6041,1858.36091 1141.11686,1857.81171 L1141.11686,1854.87131 C1144.54145,1853.82125 1146.52043,1851.31692 1147.895,1848.20581 C1148.38305,1848.18318 1148.86904,1848.16055 1149.53316,1848.1297 C1149.72674,1847.53113 1149.93781,1846.87702 1150.24156,1845.93906 C1149.10483,1845.04429 1147.94751,1844.13512 1147.07129,1843.44502 L1147.07129,1841.2009 C1148.39747,1840.9623 1149.75968,1840.71752 1151.31753,1840.43778 C1151.78087,1837.8193 1151.29385,1835.12573 1151.63466,1832.48565 C1153.03704,1831.08591 1154.29629,1829.49075 1155.88091,1828.34195 C1156.2757,1828.05533 1156.70499,1827.81701 1157.14253,1827.58965 L1157.66986,1827.3197 C1158.72569,1826.78078 1159.76846,1826.21908 1160.43502,1825.11873 C1160.76924,1824.19743 1160.35397,1823.63452 1159.85685,1823.1108 L1159.55409,1822.7987 C1159.31929,1822.55565 1159.09574,1822.30722 1158.9513,1822.02098 L1158.9513,1818.03361 C1158.66609,1817.64793 1158.25012,1817.08536 1157.59321,1816.19882 C1156.79214,1814.52447 1157.93196,1812.9612 1159.06045,1811.19943 C1158.55489,1810.28203 1158.003,1809.2803 1157.27813,1807.96386 C1157.73736,1807.3293 1158.27895,1806.5816 1158.93277,1805.6786 L1158.93277,1802.92642 C1158.45605,1802.41013 1157.95976,1801.87224 1157.49127,1801.36521 L1157.49127,1799.89655 C1157.6322,1799.75578 1157.76952,1799.61848 1157.91543,1799.47261 L1158.22233,1799.16588 C1158.38513,1799.00323 1158.56467,1798.82399 1158.77318,1798.61611 C1159.27152,1796.20538 1158.67845,1793.50359 1159.07795,1790.95813 C1159.58762,1790.35133 1160.04787,1789.80418 1160.44429,1789.33212 C1160.42369,1787.28958 1157.83517,1786.09758 1159.10987,1783.56549 C1159.35801,1783.27649 1159.82444,1782.73037 1160.38045,1782.08038 L1160.38045,1779.16261 C1159.97992,1778.72448 1159.48775,1778.18762 1158.96572,1777.6158 L1158.96572,1774.69289 C1159.44965,1774.17145 1159.94697,1773.63562 1160.40928,1773.13681 L1160.40928,1756.63194 C1159.566,1756.33677 1158.70419,1756.03543 1157.78781,1755.71454 C1157.83517,1754.40736 1159.09545,1753.99597 1159.62778,1753.25959 C1160.42163,1753.08578 1161.09502,1752.93768 1161.69221,1752.80706 C1162.00111,1750.89411 1162.37384,1749.18068 1160.47723,1747.99383 C1161.44613,1746.95713 1162.40576,1745.93277 1163.36332,1744.90842 C1162.46444,1744.01159 1161.58925,1743.13637 1160.57608,1742.12435 L1160.57608,1733.45847 C1160.07567,1732.84242 1159.62778,1732.29116 1159.045,1731.57329 L1159.045,1727.60031 C1158.32065,1726.00747 1157.04087,1725.36744 1155.75862,1724.77644 L1155.33188,1724.58002 C1155.04833,1724.44862 1154.76769,1724.31469 1154.49604,1724.16831 L1154.49459,1722.68514 L1154.49398,1719.74075 C1154.981,1719.20903 1155.45567,1718.68863 1155.80986,1718.30089 C1154.92952,1716.8199 1154.02549,1715.45923 1153.30268,1714.00909 C1153.00409,1713.40846 1153.21208,1712.57232 1152.98144,1711.91616 C1152.29363,1709.96206 1151.29076,1708.12213 1151.12087,1705.98909 C1151.09204,1705.6137 1150.46602,1705.28459 1150.07269,1704.89171 L1150.07269,1700.48678 C1151.72733,1699.3894 1151.30518,1696.9293 1153.04939,1695.78256 L1153.04939,1686.9511 C1154.59077,1685.58426 1156.39161,1686.55102 1158.02874,1686.27848 C1158.30318,1686.41997 1158.54322,1686.63318 1158.77985,1686.85751 L1158.98257,1687.05111 C1159.55867,1687.59933 1160.16696,1688.11105 1161.25153,1687.71833 C1161.69118,1686.78654 1162.171,1685.76938 1162.64257,1684.76868 L1164.18189,1684.76868 C1164.90882,1684.04258 1165.61,1683.34323 1166.31016,1682.64284 C1166.37091,1681.47141 1166.43063,1680.29999 1166.49756,1679 L1174.66983,1679 Z M1134.6157,2109.59125 C1133.08874,2109.66324 1132.13323,2109.70746 1130.69894,2109.77534 L1130.69894,2137.10691 C1131.21067,2137.65303 1131.71005,2138.18577 1132.15485,2138.66093 L1132.15485,2151.97137 C1131.61841,2152.57303 1131.13757,2153.11195 1130.75454,2153.54082 C1129.78359,2156.39482 1133.3513,2158.3448 1132.05807,2160.90363 C1131.4722,2161.64721 1131.03563,2162.20156 1130.85338,2162.43296 L1130.85338,2166.99937 C1131.35791,2167.50229 1131.70696,2167.85197 1132.18677,2168.33021 C1132.18677,2173.1239 1132.18162,2178.04718 1132.20222,2182.97149 C1132.20325,2183.1669 1132.43492,2183.36231 1132.55847,2183.55772 C1132.90855,2183.9074 1133.25863,2184.25708 1133.67358,2184.67155 C1133.67358,2190.03193 1133.66946,2195.45814 1133.69108,2200.88434 C1133.69211,2201.07255 1133.96291,2201.2587 1134.10706,2201.44588 C1134.45713,2201.79556 1134.80721,2202.14524 1135.15832,2202.49389 C1135.15832,2206.941 1135.15832,2211.38707 1135.16141,2215.83314 C1135.65873,2216.36692 1136.15707,2216.90069 1136.66984,2217.45092 L1136.66984,2229.21661 C1137.19804,2229.80078 1137.68403,2230.33764 1138.19371,2230.90124 L1138.19371,2238.21057 C1138.95358,2238.96855 1139.65271,2239.66791 1140.37655,2240.39093 C1141.0592,2239.68334 1141.74289,2238.97678 1142.46055,2238.23217 C1142.59955,2236.62673 1142.91874,2234.95032 1142.25256,2233.35106 L1141.15084,2232.25059 C1141.62962,2231.72916 1142.10841,2231.20773 1142.58925,2230.68321 L1142.58925,2223.46644 C1141.94675,2222.60767 1141.39384,2221.86923 1140.83474,2221.12153 C1141.47209,2220.127 1141.94264,2219.39164 1142.38229,2218.70463 C1141.92307,2218.14 1141.47415,2217.59079 1141.23836,2217.30179 L1141.23836,2211.28114 L1141.68034,2210.83966 C1141.74861,2210.77147 1141.81462,2210.70554 1141.87906,2210.64117 L1142.25223,2210.26843 C1142.31308,2210.20764 1142.37371,2210.14708 1142.43481,2210.08605 L1142.43481,2194.08102 C1141.85563,2192.93093 1141.48033,2192.18465 1141.19465,2191.61698 L1141.05875,2191.34699 C1141.01559,2191.26126 1140.97439,2191.17945 1140.93462,2191.10051 C1141.65022,2189.77276 1143.1432,2189.2215 1142.59028,2187.686 C1142.09914,2187.15531 1141.60285,2186.61947 1141.0973,2186.07438 L1141.0973,2165.53585 C1140.45068,2164.66166 1139.90188,2163.92013 1139.36235,2163.18992 C1139.99146,2162.18613 1140.4548,2161.44872 1140.81312,2160.87792 C1140.29521,2160.01606 1139.8226,2159.23134 1139.42413,2158.569 C1140.14694,2157.51688 1140.67,2156.75478 1140.92947,2156.37734 L1140.92947,2151.81196 L1140.73937,2151.62204 L1140.39958,2151.2824 C1140.1347,2151.01761 1139.90858,2150.79159 1139.66919,2150.55312 C1140.14282,2150.0358 1140.61852,2149.51642 1141.1076,2148.98161 L1141.1076,2146.07516 C1140.59483,2145.52596 1140.09649,2144.99321 1139.58064,2144.44195 L1139.58064,2140.12341 C1139.03801,2139.50736 1138.56232,2138.96638 1138.21636,2138.57248 L1138.21636,2135.66397 C1138.78987,2134.96975 1139.24394,2134.42158 1139.50753,2134.10275 L1139.50753,2119.19509 L1138.68075,2118.36925 C1138.62238,2118.31095 1138.56215,2118.25079 1138.49933,2118.18804 L1138.08559,2117.77477 L1138.08559,2113.05924 C1137.80965,2113.24745 1137.53371,2113.43463 1137.25776,2113.62182 C1136.30946,2112.17579 1135.36219,2110.73079 1134.6157,2109.59125 Z M1144.58573,2050.15498 C1143.83512,2051.22562 1143.01655,2052.3919 1142.44613,2053.20542 L1140.17989,2053.20542 C1139.90188,2054.01689 1139.60535,2054.87977 1139.04728,2056.51092 C1138.85275,2056.68892 1138.64866,2056.87565 1138.43631,2057.06994 L1137.77575,2057.67432 C1136.524,2058.8196 1135.06133,2060.15787 1133.60253,2061.49283 L1133.60253,2064.32935 C1133.03623,2065.00402 1132.57598,2065.55117 1132.29591,2065.88645 L1132.29591,2101.16397 C1133.64166,2100.68162 1134.32225,2100.50781 1134.93077,2100.19515 C1135.3488,2099.98123 1135.61754,2099.45054 1136.04072,2099.28393 C1136.66778,2099.03709 1137.37308,2098.9867 1137.93321,2098.8746 C1138.13502,2097.96029 1138.28432,2097.28561 1138.42023,2096.66956 C1139.39221,2096.33222 1140.25402,2096.03191 1141.10863,2095.73468 C1141.10863,2094.59822 1140.69883,2093.12648 1141.18379,2092.72024 C1142.75399,2091.40277 1142.45437,2089.08974 1144.01531,2087.97077 L1144.01531,2083.90728 C1143.32133,2082.83356 1142.82298,2082.06221 1142.00441,2080.79514 C1143.4037,2079.88083 1144.63927,2079.07451 1145.50623,2078.50782 L1145.50623,2055.74266 C1146.07871,2054.59489 1147.60979,2054.05905 1146.98789,2052.34357 C1146.38966,2051.79848 1145.66171,2051.13511 1144.58573,2050.15498 Z M1070.53998,2096 C1071.73842,2097.71119 1070.37104,2097.56746 1069,2098 C1069.71857,2097.06712 1070.12989,2096.53288 1070.53998,2096 Z M1257.8351,2053.20337 C1257.67036,2053.36792 1257.34293,2053.5695 1257.3697,2053.69189 C1257.44795,2054.04157 1257.67036,2054.35834 1257.8351,2054.68848 C1257.99984,2054.52392 1258.32727,2054.32234 1258.3005,2054.19995 C1258.22224,2053.8513 1258.00087,2053.5335 1257.8351,2053.20337 Z M1262.04119,2029.71313 C1261.91866,2029.68639 1261.71788,2030.01241 1261.55211,2030.178 C1261.87542,2030.35592 1262.19872,2030.53385 1262.51071,2030.70663 L1263.03994,2030.178 C1262.70943,2030.01241 1262.39127,2029.79129 1262.04119,2029.71313 Z M1232.42661,1919.42215 C1231.83765,1919.54146 1231.17662,1919.67516 1230.20979,1919.87057 C1230.42498,1920.90418 1230.59693,1921.72592 1230.75344,1922.47774 L1232.56046,1922.47774 C1233.61584,1921.47395 1233.65188,1920.48353 1232.42661,1919.42215 Z M1117.52157,1881.16516 C1117.53496,1881.47884 1117.54834,1881.79252 1117.56173,1882.10621 C1118.22379,1882.19363 1118.88379,1882.31807 1119.54791,1882.34275 C1119.71059,1882.34892 1120.05552,1881.98176 1120.0236,1881.87069 C1119.9227,1881.51998 1119.69824,1880.94404 1119.49334,1880.93169 C1118.8426,1880.89364 1118.17951,1881.07157 1117.52157,1881.16516 Z M1454.38717,2277.23309 C1454.21504,2276.92185 1454.03673,2276.59825 1453.85842,2276.27465 C1453.69248,2276.43954 1453.36575,2276.64154 1453.39254,2276.76314 C1453.47088,2277.11354 1453.69248,2277.43199 1453.85739,2277.7628 C1454.02333,2277.59688 1454.18825,2277.43199 1454.38717,2277.23309 M1465.23633,2187.49045 C1465.40846,2187.80272 1465.5878,2188.12529 1465.76611,2188.44889 C1465.93102,2188.284 1466.25879,2188.08201 1466.23199,2187.95937 C1466.15366,2187.61 1465.93102,2187.29155 1465.76611,2186.96074 C1465.6012,2187.12563 1465.43526,2187.29155 1465.23633,2187.49045 M1436.12108,2261.78062 C1435.38723,2261.42198 1434.04938,2260.76653 1432.67545,2260.09356 C1432.50642,2260.74077 1432.38995,2261.18907 1432.16628,2262.0496 C1433.45363,2263.16262 1434.90692,2264.4189 1436.57665,2265.8617 C1436.87762,2265.76895 1437.53521,2265.56593 1438.15157,2265.37527 C1437.52696,2264.26946 1436.97554,2263.29247 1436.12108,2261.78062 M1440.96538,2269.1513 C1442.97112,2271.15784 1444.69137,2272.87787 1446.51261,2274.6989 C1448.44827,2274.79474 1448.44827,2274.79371 1449.63049,2274.08674 C1447.47426,2271.92974 1445.24897,2269.70369 1442.94123,2267.39623 C1441.86621,2267.65388 1441.86621,2267.65388 1440.96538,2269.1513 M1415.90182,2111.04432 L1421.078,2111.04432 C1421.62221,2111.5524 1422.15611,2112.05223 1422.70651,2112.56752 L1425.55949,2112.56752 C1426.16657,2113.10651 1426.70666,2113.58573 1427.2787,2114.0938 L1433.00424,2114.0938 C1433.634,2114.60497 1434.13183,2115.00895 1434.61523,2115.4016 C1435.61398,2114.40297 1436.48801,2113.52904 1437.36411,2112.65305 C1438.60198,2113.69806 1439.83882,2114.74616 1440.77985,2115.54176 C1441.51577,2115.49332 1441.85075,2115.57474 1441.98371,2115.44695 C1443.40608,2114.07113 1444.7965,2112.66233 1446.12816,2111.33082 C1448.52351,2110.10444 1450.1345,2112.31812 1452.12272,2112.60462 C1453.31833,2110.8918 1453.63167,2108.5122 1456.49908,2108 C1457.56895,2108.92031 1458.81816,2109.9952 1460.02717,2111.03505 C1462.32151,2111.37308 1462.54002,2108.82755 1465.75787,2108.14634 L1467.35545,2108.14634 C1468.52015,2110.41464 1471.369,2110.85058 1473.38506,2112.5737 L1477.42747,2112.5737 C1480.14645,2114.52767 1483.53849,2114.22984 1485.87303,2116.32809 L1485.87303,2117.76162 C1487.75406,2118.49127 1487.75406,2118.49127 1489.53923,2117.05465 L1492.53548,2117.05465 C1493.49094,2117.96362 1494.54947,2118.97152 1495.63171,2120.00107 L1497.23239,2120.00107 C1497.52305,2120.83893 1497.82298,2121.70049 1498.19609,2122.77435 C1499.27421,2122.87019 1500.44405,2122.97531 1501.81592,2123.09898 C1501.98083,2123.69569 1502.16429,2124.35938 1502.44774,2125.38377 C1504.45348,2127.3429 1506.73545,2129.57203 1509.01639,2131.80014 C1509.31427,2131.50231 1509.66367,2131.15191 1510.09245,2130.72422 C1511.66117,2130.77575 1511.89824,2132.64934 1513.15672,2133.19348 C1514.3276,2133.32127 1515.49744,2133.44907 1516.49104,2133.55728 C1517.68974,2135.96058 1518.81527,2138.21754 1520.09849,2140.78883 C1520.09231,2142.30893 1517.4836,2143.49307 1518.97194,2146.43227 C1519.5749,2146.80637 1520.84369,2147.59167 1521.09415,2147.74729 C1522.00838,2150.42988 1520.97356,2151.1956 1520.10983,2151.92319 L1520.10983,2157.4378 C1520.96428,2159.10321 1521.60332,2160.34918 1522.24544,2161.60133 L1525.34682,2161.60133 C1526.41463,2162.81226 1527.55252,2164.10151 1528.94603,2165.68139 L1528.94603,2173.80439 C1529.99219,2175.63985 1530.90952,2177.24961 1532,2179.16339 L1532,2181.72129 C1531.49805,2182.25719 1530.99816,2182.79102 1530.52094,2183.30013 C1530.49724,2183.82572 1530.47353,2184.31113 1530.44261,2184.97379 C1529.8448,2185.16753 1529.19134,2185.3788 1527.8772,2185.80546 C1527.42059,2186.45679 1526.5682,2187.66874 1526.01575,2188.45611 L1522.31656,2188.45611 C1520.22733,2190.75017 1517.7588,2192.64128 1516.41889,2195.66499 C1515.83036,2196.99547 1514.51931,2198.52278 1512.65374,2198.86905 C1512.47852,2198.44549 1512.3301,2197.67255 1512.12293,2197.65606 C1510.96442,2197.5664 1509.5905,2197.27578 1508.66493,2197.76428 C1506.38708,2198.96387 1504.35556,2200.66432 1501.54484,2200.35721 C1500.00085,2202.24213 1496.72941,2201.75982 1496.13263,2204.57742 C1494.668,2204.74128 1493.49507,2204.87216 1492.11702,2205.02572 C1491.982,2205.69044 1491.84388,2206.36856 1491.66557,2207.24249 C1489.81134,2208.54411 1487.50463,2207.25589 1484.53621,2208.30502 C1484.23937,2208.6956 1483.34987,2209.87149 1482.35009,2211.19269 C1481.35341,2208.81721 1480.51648,2206.90446 1478.72718,2206.19336 C1477.97374,2206.36341 1477.67174,2206.33764 1477.53157,2206.47677 C1474.70951,2209.26757 1471.90703,2212.07796 1468.8376,2215.14702 L1459.77465,2215.14702 C1458.86557,2217.0711 1458.08223,2218.7293 1457.1546,2220.69152 C1456.30943,2221.12642 1455.07671,2221.76023 1453.36368,2222.64137 L1450.81373,2222.64137 C1450.25406,2223.31743 1449.62739,2224.07593 1448.90796,2224.94574 C1449.10586,2225.91139 1451.22086,2226.66577 1449.5336,2228.5136 C1449.08421,2228.17145 1448.60906,2227.81074 1447.60928,2227.05121 C1446.96097,2228.14053 1446.23845,2229.35352 1445.35308,2230.83961 C1443.39371,2227.96121 1444.7429,2225.41568 1443.88123,2223.0031 C1442.45474,2222.71866 1442.24654,2224.34801 1441.322,2224.80661 C1440.2913,2225.31675 1439.26988,2225.84337 1438.24124,2226.36484 L1438.24124,2228.02304 C1435.96545,2229.12679 1435.45937,2231.68056 1433.90405,2234.11684 L1433.90405,2240.29206 C1433.95146,2240.58784 1435.79229,2240.97842 1435.16253,2242.75411 C1434.34416,2243.16325 1433.35571,2243.65689 1432.39613,2244.13714 C1431.11909,2246.2086 1434.79766,2246.74553 1433.76387,2248.71806 C1435.5408,2249.80738 1435.29446,2251.59131 1435.32332,2253.27321 C1437.61972,2255.37661 1439.43376,2258.02004 1442.5774,2259.14543 C1443.27518,2259.39586 1444.33165,2260.1317 1444.19044,2261.39106 C1444.01523,2262.96063 1445.84884,2263.0946 1446.12198,2264.30244 L1449.2347,2264.30244 C1450.31693,2265.32889 1451.37959,2266.3368 1452.46697,2267.36944 L1453.88522,2267.36944 C1454.7139,2268.81121 1455.52403,2270.22207 1456.2414,2271.47113 C1458.37495,2271.82977 1460.35184,2271.72672 1461.75565,2273.29731 C1463.59546,2272.84077 1464.86322,2274.14754 1466.57418,2274.89059 C1467.04006,2274.59069 1467.60282,2274.19701 1468.19651,2273.85589 C1468.59229,2273.62916 1469.03137,2273.47973 1469.80028,2273.1417 C1470.92683,2274.11456 1472.05442,2275.84387 1473.45927,2276.10976 C1475.21558,2276.44264 1475.75464,2277.79991 1476.89356,2278.39867 C1477.19247,2279.6972 1476.40295,2281.01531 1477.479,2282.04073 C1478.22317,2281.57285 1478.96218,2281.10806 1479.6579,2280.67109 C1481.94503,2282.15821 1482.35422,2282.64052 1483.17981,2284.75836 C1486.5131,2288.09125 1489.84535,2291.4231 1493.24048,2294.81885 L1493.24048,2297.68076 C1493.75789,2298.25067 1494.24748,2298.78966 1494.77417,2299.36988 L1494.77417,2302.25446 C1495.28849,2302.81098 1495.78528,2303.34997 1496.30682,2303.91575 L1496.30682,2305.32867 C1497.73743,2306.75912 1499.14022,2308.16173 1500.64504,2309.66637 L1500.64504,2315.4376 C1501.15421,2316.03225 1501.62214,2316.57742 1502.17769,2317.22565 L1502.17769,2323.0041 C1502.69613,2323.56988 1503.18881,2324.10785 1503.71138,2324.67672 L1503.71138,2338.07113 C1504.05357,2338.38031 1504.41947,2338.71112 1504.88431,2339.1316 C1505.78515,2341.18244 1504.75341,2343.41261 1505.32236,2345.38101 C1504.79567,2345.90764 1504.44523,2346.25907 1503.90618,2346.79806 C1504.31846,2347.43495 1504.76372,2348.12338 1505.40276,2349.11273 C1505.01006,2349.76818 1504.53697,2350.55657 1503.56708,2352.17355 C1503.13831,2353.30512 1504.20611,2354.90148 1505.22032,2356.48857 C1505.07087,2356.95027 1505.00491,2357.4367 1504.76681,2357.81183 C1504.50708,2358.22097 1504.08552,2358.52705 1503.48565,2359.12788 C1504.53903,2361.27869 1505.64703,2363.53875 1506.81276,2365.91835 C1506.38914,2366.47383 1505.96243,2367.03446 1505.21723,2368.01248 L1505.21723,2381.21108 C1504.60396,2381.82427 1504.25352,2382.1757 1503.64026,2382.78786 L1503.64026,2390.23172 C1503.02699,2390.84491 1502.67552,2391.19634 1502.27973,2391.59208 L1502.27973,2398.9504 C1501.75923,2399.50897 1501.26037,2400.04487 1500.74605,2400.59623 L1500.74605,2405.03699 C1500.39664,2405.38429 1500.04414,2405.73366 1499.43294,2406.33964 L1499.43294,2410.81337 C1498.81864,2411.42656 1498.4682,2411.77799 1497.85493,2412.39118 L1497.85493,2419.83401 C1496.71498,2420.97486 1495.83785,2421.85188 1494.69789,2422.9917 L1494.69789,2430.43246 C1494.08463,2431.04668 1493.73419,2431.39811 1493.34355,2431.7887 L1493.34355,2437.66711 C1492.82408,2438.22362 1492.32419,2438.75952 1491.8109,2439.30985 L1491.8109,2446.71764 C1489.58974,2448.64172 1489.5784,2451.81281 1487.66748,2453.97187 C1486.97897,2454.74892 1486.98825,2456.09795 1486.06268,2457.02031 C1484.89283,2458.18693 1483.08705,2458.97841 1482.91492,2460.89013 C1482.78196,2462.37725 1480.70406,2462.95334 1481.28332,2464.68884 C1479.6311,2465.82968 1479.81457,2468.14333 1478.15926,2469.37899 C1476.58641,2470.55282 1475.28464,2472.09147 1473.93545,2473.4003 L1473.93545,2478.94378 C1473.19231,2480.42059 1472.67593,2481.44705 1471.88538,2483.01971 C1471.4628,2483.44224 1470.58567,2484.31926 1469.59826,2485.30759 L1469.59826,2488.52093 C1468.6026,2489.25779 1467.41833,2490.13481 1466.75765,2490.62433 C1466.22271,2492.47422 1467.01532,2493.7882 1466.03203,2494.83424 C1464.79828,2494.66626 1464.01598,2492.66385 1462.22771,2494.12829 C1462.13289,2495.11559 1462.01951,2496.28941 1461.88758,2497.66523 C1461.28978,2497.82497 1460.62291,2498.00429 1459.57778,2498.28358 C1458.15232,2499.28324 1460.06427,2502.07301 1457.78848,2503.07164 C1457.85651,2505.38116 1455.75182,2506.2149 1454.61702,2507.89886 L1454.61702,2513.64227 C1454.10476,2514.19569 1453.60796,2514.73365 1453.08333,2515.29944 L1453.08333,2516.88858 C1452.23919,2517.18436 1451.37649,2517.48735 1450.42722,2517.82023 C1450.28704,2518.44991 1450.13656,2519.12597 1449.98608,2519.80306 C1448.58432,2521.20773 1447.18051,2522.61138 1445.67156,2524.12014 C1445.67156,2524.74364 1445.72104,2525.47741 1445.65301,2526.20088 C1445.61178,2526.64815 1445.47985,2527.13664 1445.23764,2527.50765 C1443.33702,2530.41181 1442.31663,2533.77046 1440.48714,2536.69936 C1439.97591,2537.5197 1439.11321,2538.12053 1438.3206,2538.91304 C1438.7401,2539.41184 1439.16681,2539.91889 1439.55229,2540.37749 C1439.01014,2541.33902 1438.45975,2542.31292 1437.26001,2544.43797 C1437.52902,2544.17002 1436.82608,2544.86978 1436.06233,2545.62828 C1435.55729,2545.1841 1435.04194,2544.73271 1434.5101,2544.26586 C1433.89477,2545.45205 1433.2681,2546.66092 1432.35696,2548.41702 C1432.30234,2549.43317 1432.21164,2551.10168 1432.12609,2552.68567 C1431.05519,2553.06389 1430.19249,2553.36894 1429.33804,2553.6709 L1429.33804,2556.72038 C1428.30837,2557.83443 1426.76747,2558.77947 1426.46857,2560.02235 C1426.14596,2561.36828 1425.36469,2562.07835 1424.66587,2563.02957 C1423.85574,2564.13332 1423.22289,2565.36692 1422.49418,2566.57476 L1419.59173,2566.57476 C1418.85993,2567.30647 1418.15802,2568.00829 1417.46127,2568.70393 C1416.84903,2570.22197 1418.11474,2570.87948 1418.85581,2571.77711 C1417.37057,2573.1014 1414.60829,2572.87776 1414.33412,2575.75514 C1414.25785,2576.55074 1413.2488,2577.27627 1412.62728,2577.99767 C1409.95983,2581.09455 1406.27507,2583.30308 1404.67336,2587.35737 C1404.38167,2588.09526 1403.52825,2588.72598 1402.40067,2588.97228 C1401.33698,2589.20519 1400.45367,2590.26566 1399.54768,2590.92214 L1399.54768,2595.83696 C1398.23663,2596.08017 1396.88744,2596.3306 1395.33727,2596.61813 C1395.21359,2597.22308 1395.07341,2597.9012 1394.9085,2598.70299 C1393.08416,2600.52814 1391.15468,2602.45738 1389.22521,2604.38662 C1389.74159,2607.23823 1385.54664,2607.66592 1386.06817,2610.52062 C1385.19105,2611.39764 1384.3737,2612.3468 1383.42236,2613.13313 C1382.25458,2614.09775 1381.81962,2615.38082 1381.27129,2616.71954 C1380.66215,2618.20254 1379.81182,2619.75561 1378.63682,2620.79031 C1377.42987,2621.85284 1377.31752,2623.27091 1376.62386,2624.47256 C1374.7418,2627.72816 1373.48434,2631.36712 1370.32318,2633.80032 C1369.69446,2634.28572 1369.79546,2635.66772 1369.18632,2636.24175 C1367.92577,2637.43207 1368.37104,2639.59113 1366.60338,2640.41559 C1365.09753,2641.11741 1365.53455,2642.96421 1364.53889,2644.04116 C1363.95448,2644.6729 1363.79369,2645.69523 1363.39687,2646.65264 C1362.7867,2646.78249 1362.10953,2646.92677 1361.43236,2647.07105 C1359.45341,2648.77666 1358.02795,2651.09133 1355.22444,2651.87251 C1353.4774,2652.35894 1353.84949,2654.77977 1352.55905,2655.85363 C1352.06019,2655.8763 1351.57267,2655.89795 1351.0903,2655.91959 C1350.43271,2656.5771 1350.43271,2656.5771 1350.40694,2660.87048 C1349.32986,2662.36172 1347.88894,2663.46238 1346.52017,2665 C1345.83579,2663.07591 1345.82239,2661.86189 1346.50574,2660.38817 C1347.46017,2658.32598 1349.40304,2656.56267 1348.91861,2653.94912 C1349.52673,2652.13428 1352.3024,2651.68495 1351.88394,2649.33317 C1353.41453,2647.64096 1354.88843,2646.01162 1356.36131,2644.38228 C1355.95727,2642.91577 1357.69297,2642.45922 1357.83418,2641.27612 C1357.92179,2640.54235 1357.84964,2639.789 1357.84964,2638.55334 C1359.2854,2637.37848 1360.99328,2635.97999 1362.34246,2634.87521 L1362.34246,2630.35304 C1362.99078,2629.03081 1363.3206,2628.15172 1363.82049,2627.38291 C1364.82955,2625.82674 1365.0161,2623.76353 1366.58895,2622.58249 C1369.39246,2620.48011 1370.18816,2617.1431 1371.91562,2614.37703 C1372.77625,2612.99915 1372.74327,2611.04209 1374.46969,2610.20835 C1375.97246,2609.48385 1375.34785,2607.52061 1376.56923,2606.60958 C1377.82772,2605.67175 1376.81454,2604.27738 1377.47419,2602.8995 C1379.6768,2600.74044 1382.14739,2598.31859 1384.60355,2595.91116 C1383.88721,2593.42953 1385.92388,2591.83729 1386.27122,2589.59372 C1387.62247,2588.12515 1389.25304,2586.61329 1390.54348,2584.85204 C1391.32887,2583.78127 1391.6319,2582.33949 1392.0617,2581.03478 C1392.20909,2580.58751 1392.08541,2580.05058 1392.08541,2579.26219 C1394.03137,2577.76476 1395.29398,2575.49337 1396.55968,2572.01414 L1396.55968,2569.27384 C1397.2956,2567.84134 1397.82126,2566.819 1398.66953,2565.17008 C1400.0754,2563.76334 1402.00488,2561.8341 1403.93435,2559.90486 C1403.41281,2557.23567 1406.88834,2556.86054 1407.04088,2554.4696 C1407.09242,2553.65441 1408.0386,2552.92683 1408.42614,2552.09 C1408.61476,2551.68086 1408.45913,2551.11301 1408.45913,2550.6173 L1408.45913,2549.14255 C1409.25895,2548.62932 1410.50301,2547.83062 1410.80603,2547.63585 C1411.99855,2545.07898 1410.82665,2544.36995 1409.93406,2543.45789 C1411.7079,2541.75537 1413.48173,2540.05286 1415.35143,2538.25863 L1416.93149,2538.25863 C1417.17783,2536.94361 1417.43344,2535.58119 1417.71792,2534.06727 C1418.35077,2533.93536 1419.02897,2533.79314 1419.78241,2533.63546 C1420.41938,2532.99856 1421.12129,2532.29674 1421.9139,2531.5032 C1421.80671,2530.89928 1421.68508,2530.22219 1421.50574,2529.21841 C1420.74612,2529.82748 1420.25035,2530.22425 1419.72366,2530.64679 C1419.46702,2530.40975 1418.95579,2530.1686 1418.9125,2529.86149 C1418.51052,2527.02225 1420.22355,2524.97655 1421.7562,2522.27335 L1421.7562,2518.44476 C1422.26537,2517.85217 1422.73434,2517.30597 1423.28886,2516.66083 L1423.28886,2513.95144 C1423.90831,2512.85388 1425.38324,2512.28809 1424.82048,2510.72677 C1426.75407,2508.81814 1428.69282,2506.9023 1430.57797,2505.04107 C1430.7769,2504.2836 1430.95315,2503.61269 1431.12734,2502.94076 C1431.989,2502.63365 1432.85067,2502.32756 1434.13699,2501.86896 C1431.30771,2500.46119 1430.99747,2497.65287 1429.471,2495.66385 C1430.34813,2494.78683 1431.22525,2493.90981 1432.18896,2492.94622 L1432.18896,2488.3076 C1433.20832,2487.50375 1434.3658,2486.59169 1435.25427,2485.89192 C1435.25427,2482.92799 1435.25427,2480.44842 1435.25633,2477.96885 C1435.60883,2477.61742 1435.95926,2477.26703 1436.58696,2476.63837 C1436.65499,2475.76238 1436.74569,2474.58753 1436.83639,2473.41267 C1439.11115,2472.37076 1437.74032,2469.89737 1438.87203,2468.28349 C1440.31501,2466.22543 1441.26222,2463.82006 1442.65882,2461.10758 L1442.65882,2458.7321 C1443.1783,2458.17456 1443.67819,2457.63866 1444.19148,2457.08833 L1444.19148,2452.66097 C1444.55222,2452.30027 1444.90266,2451.94988 1445.37884,2451.47375 C1445.46336,2449.49195 1446.21886,2447.56168 1447.15989,2445.69015 C1446.2972,2443.53212 1449.22748,2442.54689 1448.72244,2440.3363 C1448.3452,2438.68635 1448.64823,2436.88078 1448.64823,2434.99792 C1449.03474,2434.53519 1449.49237,2433.98589 1450.06235,2433.30262 L1450.06235,2429.06179 C1450.57667,2428.48467 1451.06007,2427.94362 1451.595,2427.34279 L1451.595,2421.36648 C1453.77287,2420.14112 1454.4418,2417.71514 1455.96311,2415.13664 C1456.05072,2413.61757 1456.17544,2411.45439 1456.30015,2409.29121 C1458.72539,2408.1483 1456.44857,2404.79995 1458.99956,2403.67353 L1458.99956,2399.27503 C1459.51491,2398.701 1460.0014,2398.16098 1460.53221,2397.57046 L1460.53221,2394.70751 C1461.05168,2394.14379 1461.54848,2393.60583 1462.06589,2393.04519 L1462.06589,2390.17195 C1462.59464,2389.58658 1463.08217,2389.04759 1463.53361,2388.54776 L1463.53361,2384.76451 C1464.40043,2383.12177 1465.2621,2381.4883 1466.40309,2379.32822 L1466.40309,2374.07743 C1466.91122,2373.47866 1467.37504,2372.93143 1467.93574,2372.27083 L1467.93574,2367.99805 C1468.45315,2367.42918 1468.9417,2366.89018 1469.46942,2366.30894 L1469.46942,2358.96196 C1469.96725,2358.41266 1470.44756,2357.88294 1470.90725,2357.37487 C1470.41664,2356.82763 1469.93221,2356.28658 1469.34368,2355.63113 C1469.88376,2354.38413 1470.69905,2353.16393 1470.89797,2351.84994 C1471.08659,2350.59985 1471.08556,2349.4353 1472.2822,2348.70153 C1471.80911,2347.92963 1471.35354,2347.18761 1470.72997,2346.16941 C1471.25357,2345.45522 1471.80087,2344.71114 1472.45227,2343.82381 L1472.45227,2336.54073 C1472.79549,2336.23052 1473.16139,2335.89868 1473.46133,2335.6266 C1473.64685,2335.10101 1473.90968,2334.67435 1473.93133,2334.23429 C1473.99214,2333.00585 1473.95297,2331.77328 1473.95297,2330.60666 C1473.53657,2330.19134 1473.18613,2329.83991 1472.65017,2329.30401 L1472.65017,2317.608 C1471.369,2315.78594 1469.51065,2314.51627 1468.12745,2312.78284 C1468.93449,2310.85257 1465.66098,2310.29502 1466.51028,2308.29571 C1465.51771,2307.21875 1463.84695,2306.23455 1463.68306,2305.0432 C1463.3955,2302.9501 1461.74019,2302.30393 1460.70949,2301.03529 C1459.77671,2299.8862 1458.62851,2298.91127 1457.57822,2297.86318 C1457.57822,2296.86455 1457.57822,2295.8721 1457.57822,2294.88069 C1455.47353,2292.77522 1453.36884,2290.67078 1451.13943,2288.44164 C1450.60656,2288.32725 1449.92939,2288.18297 1449.24706,2288.03663 C1448.4493,2286.61752 1448.10299,2284.90573 1446.4652,2283.81847 L1441.7683,2283.81847 C1440.54692,2282.30559 1439.15959,2280.58762 1438.11034,2279.28703 C1436.90339,2279.23344 1436.4169,2279.21076 1435.93453,2279.18912 C1433.47424,2276.72914 1431.01911,2274.2743 1428.55883,2271.81328 L1427.0571,2271.81328 C1426.19646,2270.93832 1425.32758,2270.05615 1424.24019,2268.95137 C1423.51355,2268.905 1422.56943,2268.84522 1420.87083,2268.73701 C1420.51524,2267.90534 1419.90919,2266.48417 1419.67831,2265.94209 L1415.15147,2265.94209 C1414.30733,2264.13755 1413.45081,2262.30621 1412.45206,2260.17189 C1411.29974,2259.0197 1409.89696,2257.61606 1408.47665,2256.19592 L1408.47665,2247.27628 C1408.79617,2246.94134 1409.13527,2246.58476 1409.89283,2245.79019 C1410.15463,2244.11138 1409.78358,2241.908 1410.00106,2239.75101 C1410.35149,2239.39958 1410.70193,2239.04918 1411.22553,2238.52565 C1411.78829,2236.80665 1411.24717,2234.83103 1411.44507,2232.89149 C1412.50154,2231.38375 1412.58502,2229.18141 1414.24033,2228.14774 C1416.06776,2227.00483 1415.25351,2224.28102 1417.37778,2223.67607 L1417.37778,2220.49262 C1418.78984,2219.66713 1420.1916,2218.84782 1421.19138,2218.26348 C1422.67147,2216.16626 1420.87908,2213.91857 1422.54057,2212.31808 C1423.06829,2212.79009 1423.59188,2213.25797 1424.24741,2213.84437 C1424.57002,2212.91479 1424.86892,2212.05013 1425.16885,2211.18651 C1426.03052,2210.8794 1426.89219,2210.57228 1427.69923,2210.28475 C1427.74355,2209.65198 1427.77653,2209.16967 1427.81363,2208.63686 C1427.34054,2208.1257 1426.84374,2207.58876 1426.21708,2206.91168 C1427.13337,2206.59941 1427.99298,2206.30776 1428.85155,2206.01507 C1429.24528,2203.72616 1431.80348,2202.13083 1430.69238,2199.70691 C1433.76078,2196.63785 1436.56738,2193.83159 1439.59146,2190.80788 C1439.02766,2188.06552 1441.74253,2185.90543 1441.45909,2182.77969 C1442.11874,2182.64365 1442.79694,2182.50452 1443.65551,2182.32726 C1444.73259,2181.49868 1443.95854,2180.15172 1444.20075,2178.96861 C1444.87689,2177.45779 1446.87233,2176.91055 1447.17432,2175.03284 C1447.43097,2173.43545 1448.76882,2172.33479 1448.81726,2170.44162 C1448.85849,2168.78136 1450.34373,2167.15717 1451.32702,2165.2537 C1451.12603,2165.00533 1450.72509,2164.50859 1450.31487,2163.99949 C1450.7354,2163.27396 1451.18891,2162.51236 1451.62283,2161.74046 C1452.07325,2160.93764 1452.50511,2160.12452 1452.96686,2159.27532 C1451.8568,2158.16539 1450.62923,2156.93797 1449.39652,2155.7054 L1446.425,2155.7054 C1444.68106,2154.13274 1446.30029,2151.91803 1445.48913,2150.2217 C1441.57246,2149.24369 1438.78132,2145.24402 1434.63688,2146.9321 C1433.2578,2145.46456 1434.05041,2144.15161 1433.72161,2143.00663 C1432.61567,2142.14816 1431.989,2140.50955 1430.16569,2140.8146 C1429.26177,2139.18113 1427.04885,2139.69539 1426.00681,2138.27423 C1425.03899,2136.95509 1423.11776,2136.29449 1423.29298,2134.16222 C1423.31978,2133.83656 1422.71475,2133.38311 1422.3169,2133.1131 C1421.19447,2132.35253 1420.02772,2131.65689 1418.87849,2130.93549 C1419.1846,2129.0856 1417.38706,2128.57341 1416.65011,2127.38824 C1415.92037,2126.21648 1415.3607,2124.93753 1414.57737,2123.41537 C1415.62868,2122.53216 1416.92221,2121.44388 1418.56309,2120.06393 C1419.15781,2120.0021 1420.33074,2119.87843 1421.42122,2119.76403 C1421.55728,2119.42394 1421.73559,2119.14363 1421.68199,2119.08798 C1420.29879,2117.66578 1418.89085,2116.26626 1417.94364,2115.31916 C1417.08816,2113.52801 1416.49447,2112.28617 1415.90182,2111.04432 M1386.06506,1928.50372 C1385.89419,1928.19384 1385.71718,1927.87166 1385.53915,1927.54947 C1385.37544,1927.71364 1385.05007,1927.91475 1385.0777,1928.03685 C1385.15546,1928.38572 1385.37544,1928.70175 1385.53915,1929.03112 C1385.70388,1928.86694 1385.86759,1928.70175 1386.06506,1928.50372 M1393.66619,1888.03241 C1393.66619,1886.85653 1393.66619,1886.11571 1393.66619,1885.37591 C1394.66583,1884.31803 1395.66649,1883.26118 1396.68557,1882.18483 L1396.68557,1879.397 C1397.2432,1878.73724 1397.70362,1878.19239 1398.09959,1877.7245 C1398.09959,1876.35983 1397.61052,1874.75916 1398.20089,1873.96806 C1399.42869,1872.32327 1399.33763,1870.45377 1399.93823,1868.72997 C1400.458,1867.23498 1401.51289,1865.92777 1402.50843,1864.23681 L1402.50843,1860.2023 C1404.28057,1859.10543 1403.85595,1856.64901 1405.48791,1855.49263 C1405.24439,1853.51745 1408.06937,1852.40108 1406.96537,1850.18374 C1408.37325,1848.67131 1408.63927,1846.85517 1408.45817,1844.87485 C1408.32414,1843.41168 1408.46431,1842.12909 1409.69212,1840.90088 C1410.3582,1840.23496 1409.74737,1838.34289 1410.39094,1837.58154 C1411.30361,1836.50212 1411.24529,1835.44629 1411.46016,1834.27041 C1411.65865,1833.18688 1412.76265,1832.20904 1412.78721,1831.1686 C1412.82506,1829.59256 1413.77968,1828.57059 1414.23397,1827.30031 C1415.33388,1824.22108 1417.27688,1821.65385 1418.71444,1817.71784 L1418.71444,1814.37695 C1419.225,1813.80441 1419.70384,1813.26572 1420.23487,1812.6706 L1420.23487,1808.35187 C1420.75259,1807.79163 1421.24678,1807.25705 1421.75325,1806.70913 L1421.75325,1802.30318 C1422.11341,1801.942 1422.46129,1801.59314 1422.83167,1801.2217 C1423.68705,1799.62308 1422.51142,1797.24363 1424.69692,1796.10571 C1424.29276,1794.29162 1425.51954,1793.02135 1426.07513,1791.50173 C1426.55192,1790.19657 1425.79785,1788.44507 1426.25725,1787.12554 C1427.07476,1784.77071 1427.88409,1782.37689 1429.09553,1780.15237 L1429.09553,1766.62568 C1428.48367,1766.12188 1427.72755,1765.50008 1426.66652,1764.62587 L1422.38967,1764.62587 C1421.95686,1765.05682 1420.95416,1765.615 1420.65948,1766.4297 C1419.63222,1769.27499 1418.08109,1771.32303 1414.97168,1772.15517 C1413.77559,1772.47531 1413.29675,1774.29145 1411.53894,1774.71111 C1411.45709,1772.93293 1411.38035,1771.27275 1411.30566,1769.67824 C1410.80226,1769.09543 1410.33467,1768.55366 1409.66858,1767.78308 C1410.09422,1767.01456 1410.53726,1766.21422 1411.40797,1764.64228 L1411.40797,1760.80683 C1412.01574,1760.19837 1412.36361,1759.84951 1412.79335,1759.41753 L1412.79335,1755.39944 C1413.84414,1753.55251 1414.75681,1751.94568 1415.83012,1750.05977 C1415.83012,1747.47099 1415.83012,1744.51078 1415.82909,1741.54954 C1415.48122,1741.20067 1415.13334,1740.85181 1414.78341,1740.50294 C1414.63915,1740.06892 1414.38131,1739.63694 1414.3721,1739.20086 C1414.33015,1736.99173 1414.35266,1734.7826 1414.35266,1732.44624 C1415.24589,1732.13123 1416.13195,1731.89216 1416.9464,1731.50225 C1417.36487,1731.30114 1417.65443,1730.83018 1418.02482,1730.45874 L1421.12605,1730.45874 C1421.94459,1728.65285 1422.78768,1726.79361 1423.67272,1724.84203 C1424.92713,1724.15251 1426.40766,1724.65836 1427.98743,1724.49111 C1429.20296,1724.28179 1429.8363,1722.4954 1431.66778,1722.9243 C1432.51496,1723.12336 1433.61487,1722.23786 1434.59916,1721.84385 C1434.94704,1722.19271 1435.29492,1722.54158 1435.77785,1723.02588 C1438.5752,1723.02588 1441.50966,1723.03306 1444.44411,1723.00947 C1444.63851,1723.00844 1444.83087,1722.77142 1445.02425,1722.64418 C1445.32404,1721.78536 1445.6228,1720.92654 1445.94613,1720 C1446.41883,1720.42479 1446.76671,1720.73774 1446.71964,1720.69568 C1447.28955,1721.21692 1447.46656,1721.52064 1447.64766,1721.52269 C1450.10327,1721.5545 1452.5599,1721.54424 1455.17819,1721.54424 C1455.46571,1722.38048 1455.76243,1723.24033 1456.05914,1724.1012 C1457.41792,1724.87486 1458.90049,1724.35259 1460.34111,1724.51061 C1461.79299,1725.13856 1463.09447,1725.96763 1464.85944,1726.13795 C1466.32666,1726.27955 1467.63837,1727.478 1469.41766,1727.61139 C1470.8634,1727.71913 1472.32858,1728.9145 1473.58197,1729.88927 C1474.93255,1730.93894 1476.03041,1732.3108 1477.2705,1733.50925 C1478.50444,1734.70154 1479.77829,1735.85177 1480.88127,1736.87784 L1480.88127,1740.12843 C1482.44569,1741.03753 1482.21344,1742.53559 1482.3751,1743.99261 C1482.52448,1745.33471 1484.1636,1746.12786 1483.85051,1747.83525 C1483.59267,1749.24096 1483.89757,1750.50816 1484.96167,1751.83487 C1485.70449,1752.76141 1485.26658,1754.63809 1485.37094,1756.3188 C1485.68812,1756.68818 1486.15367,1757.22995 1486.70311,1757.87022 L1486.70311,1760.88994 C1487.28836,1761.10747 1487.9084,1761.31268 1488.51003,1761.56304 C1491.23473,1762.69377 1492.02667,1765.46417 1492.48812,1767.74102 C1492.98742,1770.20256 1494.9468,1771.6801 1495,1774.75216 C1493.97581,1776.75505 1492.54234,1779.55827 1491.03214,1782.50925 C1491.43118,1783.07975 1491.82817,1783.64614 1492.483,1784.58089 L1492.483,1795.0899 C1492.17196,1795.40183 1491.82408,1795.75069 1491.38411,1796.1919 C1491.26747,1797.25696 1491.13855,1798.42463 1490.98917,1799.79239 C1490.32513,1799.92783 1489.65189,1800.06532 1488.92748,1800.21205 C1488.02505,1803.30257 1485.29625,1805.06536 1483.2141,1807.35453 C1481.6292,1807.63157 1479.7435,1807.05389 1478.69475,1808.95007 L1475.78076,1808.95007 C1475.22927,1809.46618 1474.69825,1809.96382 1474.15904,1810.46968 C1468.76181,1810.46968 1463.34924,1810.46968 1457.93769,1810.4707 C1456.8255,1812.43768 1456.3927,1814.90025 1453.34263,1815.21423 C1452.39415,1815.31068 1451.59096,1816.8385 1450.63839,1817.79377 L1447.94233,1817.79377 C1447.46656,1818.16931 1447.06138,1818.42891 1446.72885,1818.76033 C1443.24188,1822.24179 1439.76515,1825.73453 1436.28637,1829.2242 C1434.89486,1830.62068 1433.41228,1831.93918 1432.13844,1833.43622 C1431.07638,1834.68597 1429.64702,1835.48938 1428.98912,1837.3045 C1428.37828,1838.99136 1426.44142,1840.14569 1425.36505,1841.72482 C1423.94898,1843.80056 1423.3627,1846.34008 1421.81362,1848.40659 C1421.34501,1849.03146 1421.74097,1850.30892 1421.74097,1851.36475 C1419.38564,1852.81561 1418.66737,1855.44543 1417.34339,1857.63609 C1416.52587,1858.98743 1416.21176,1860.65171 1415.36457,1861.9774 C1414.72816,1862.97269 1413.60267,1863.654 1412.84348,1864.34044 L1412.84348,1867.58898 C1410.94857,1868.6366 1411.53075,1870.53072 1411.24734,1872.12318 C1409.30331,1873.14105 1410.24872,1875.16035 1409.7003,1876.63892 C1408.81321,1877.52853 1407.94352,1878.40069 1407.01959,1879.32825 L1407.01959,1882.18996 C1406.50596,1882.75225 1406.01689,1883.28683 1405.5053,1883.84502 C1405.32829,1885.18506 1405.74779,1886.56 1404.54454,1887.88466 C1403.52854,1889.00513 1402.54527,1890.79562 1402.68237,1892.17774 C1402.87985,1894.17447 1401.53745,1895.32162 1400.90922,1896.69347 C1399.86763,1898.96827 1399.11151,1901.66889 1396.63339,1902.93814 L1396.63339,1908.97143 C1396.12794,1909.51833 1395.63375,1910.05291 1395.115,1910.61417 L1395.115,1913.49948 C1394.73745,1913.8781 1394.38957,1914.22697 1394.04067,1914.57583 C1393.33059,1915.95282 1393.80841,1917.43447 1393.63652,1919.16237 C1393.37357,1919.51431 1392.95611,1920.07352 1392.33402,1920.90771 L1392.33402,1926.0904 C1391.41317,1927.73006 1390.655,1929.07934 1389.89376,1930.43478 C1389.52644,1930.06642 1389.17857,1929.71756 1388.7826,1929.31944 C1387.64893,1929.12346 1387.50977,1930.42042 1386.74035,1930.75697 C1385.85428,1932.3679 1386.50604,1934.11017 1386.22467,1935.75496 C1385.52892,1936.45269 1384.83316,1937.15041 1383.98597,1938 C1383.41198,1937.22942 1382.839,1936.45987 1382,1935.33427 L1382,1923.68837 C1382.5034,1923.18354 1382.85128,1922.83468 1383.26157,1922.42425 L1383.26157,1918.0932 C1383.77315,1917.52784 1384.25711,1916.9912 1384.78098,1916.4125 L1384.78098,1913.54874 C1385.29359,1912.99261 1385.78675,1912.457 1386.30141,1911.89779 L1386.30141,1909.04429 C1386.82732,1908.45943 1387.31026,1907.92279 1387.82082,1907.35537 L1387.82082,1902.25888 C1390.13216,1897.24242 1390.61305,1892.22596 1393.66619,1888.03241 M1383.66292,1941 C1383.79507,1941.78823 1384.04631,1942.58387 1383.99258,1943.36224 C1383.97515,1943.60771 1383.1619,1943.87662 1382.66669,1943.99751 C1382.50984,1944.03575 1381.9914,1943.62375 1382.00011,1943.42885 C1382.03641,1942.63321 1382.21068,1941.84128 1382.33558,1941.04811 C1382.77706,1941.03207 1383.21999,1941.01604 1383.66292,1941 M1403,1986 C1402.06576,1985.28056 1401.53288,1984.87068 1401,1984.45957 C1402.71119,1983.26174 1402.56746,1984.62964 1403,1986 M1499,2073 C1498.28124,2073.93288 1497.87104,2074.46576 1497.45962,2075 C1496.26209,2073.28881 1497.62859,2073.43254 1499,2073" id="Combined-Shape"></path>
        </g>
    </g>
</svg>