<?xml version="1.0" encoding="UTF-8"?>
<svg width="286px" height="193px" viewBox="0 0 286 193" version="1.1" xmlns="http://www.w3.org/2000/svg" xmlns:xlink="http://www.w3.org/1999/xlink">
    <title>logo</title>
    <g id="Page-1" stroke="none" stroke-width="1" fill="none" fill-rule="evenodd">
        <g id="web" transform="translate(-807, -293)" fill="#8E1818" fill-rule="nonzero">
            <path d="M911.985127,298.464459 L911.823585,300.862491 L915.377505,299.903278 C926.685433,297.185508 939.60878,296.066427 949.30129,296.865771 C964.647764,297.984852 974.824899,303.100654 979.024987,311.733569 C980.568609,314.636076 980.637214,314.911051 980.640264,319.81178 L980.640405,320.526353 C980.640405,325.162549 980.478864,326.601368 979.671154,329.319138 C970.786354,354.738277 935.570234,379.67781 877.738258,401.419968 C873.215087,403.178524 869.176541,404.617344 868.853457,404.937081 L868.530374,404.777212 C867.884206,405.09695 866.43033,410.052883 864.65337,417.406848 L864.330286,418.52593 L871.115043,419.165405 C871.576591,419.206006 872.038791,419.247736 872.501843,419.290624 L873.893759,419.422794 C887.610056,420.757245 902.243898,423.126598 922.969971,427.318714 C940.739573,430.675959 955.924505,434.51281 957.539923,435.631891 C959.801509,437.230579 960.932302,439.468743 960.77076,441.547037 C960.447676,444.104938 959.316884,445.863495 957.21684,446.662839 C955.762963,447.302314 955.43988,447.302314 953.986003,446.662839 C952.532127,446.023364 950.916708,444.104938 950.916708,442.666119 C950.916708,441.706906 947.039704,439.308874 942.354991,437.390448 C934.086649,433.902736 916.492078,429.402014 898.82822,426.060496 L897.37643,425.788505 C894.473301,425.249924 891.575152,424.744275 888.723103,424.281206 C886.49494,423.950443 884.002129,423.602783 881.480174,423.269301 L880.722949,423.169713 C880.596678,423.153196 880.470392,423.136722 880.344122,423.120296 L879.586924,423.022333 C873.156315,422.194984 866.919041,421.510344 864.780084,421.483687 L864.547585,421.483617 C864.227906,421.48816 864.040625,421.513822 864.007202,421.563437 C863.361035,422.043043 851.715019,462.872653 850.261142,471.025962 C848.807266,479.499008 847.999557,482.216778 846.384138,484.135204 C844.76872,486.053629 842.668676,486.053629 841.053258,484.454941 C840.084007,483.495728 839.922465,483.016122 840.084007,480.61809 C840.2276,479.197034 841.902848,473.481231 843.861737,467.288233 L844.107985,466.5119 C844.273015,465.993055 844.439653,465.472001 844.607178,464.950947 L858.676322,421.08383 L853.668525,420.604224 C851.694778,420.482142 848.862749,420.422211 845.617375,420.416521 L844.520885,420.416622 C842.114632,420.421147 839.518563,420.453506 836.900292,420.510718 L835.474876,420.544273 C828.346843,420.724126 821.279388,421.08383 817.644697,421.563437 C814.252318,421.883174 810.536856,422.362781 809.406063,422.362781 L809.025262,422.362351 C807.424588,422.356556 807.314197,422.272519 807.306583,421.053983 L807.306019,419.165405 L820.067824,415.968029 C833.960422,412.450915 841.068262,410.372621 854.96086,405.896294 L864.168744,402.858787 L874.022796,373.762665 C885.653808,339.231003 890.984688,324.682942 896.315569,312.373044 L897.123278,310.614488 L895.023234,311.413832 C890.338521,313.172388 879.838302,318.128321 875.315131,320.526353 C857.222446,330.598088 843.49139,342.748117 840.099011,351.860639 C838.645135,355.69749 839.452844,356.496834 845.752975,358.095522 C851.40694,359.534341 852.699274,362.252111 848.82227,364.810012 C845.26835,367.048175 838.968219,365.449487 835.737382,361.452767 C834.445047,359.854079 834.283505,359.214604 834.121964,356.177096 C833.960422,352.97972 834.121964,352.500114 835.57584,349.462607 C837.837426,344.826411 840.745179,341.149429 846.722226,335.394152 C852.699274,329.638875 858.837864,325.00268 867.238039,319.886878 C874.184338,315.570421 886.946143,309.175668 894.700151,306.138161 L900.192573,304.059867 L902.6157,300.223015 C903.908035,298.144721 905.684995,295.746689 906.654246,294.947345 C910.046625,291.749969 912.631294,293.348657 911.985127,298.464459 Z M863.037952,406.855507 C863.037952,406.855507 855.768569,409.09367 846.883768,412.131177 L830.729585,417.246979 L839.452844,417.406848 C846.883768,417.406848 852.053107,417.726586 858.837864,418.206192 C859.484031,418.366061 859.968657,417.566717 861.422533,412.610784 C862.18129,409.607188 862.940047,407.167904 863.029231,406.883266 L863.037952,406.855507 Z M1042.41121,300.596552 C1042.88207,301.698711 1042.88207,302.485968 1041.31252,306.107348 C1030.1687,333.346423 1022.32094,356.176862 1012.90363,389.084184 C1011.49103,394.437528 1010.23539,399.003616 1010.39234,399.161067 C1010.5493,399.318519 1012.11885,397.114201 1013.84536,394.437528 C1018.39706,387.509671 1025.93091,377.275336 1029.69783,373.496505 C1033.15085,369.875125 1034.56345,369.402771 1035.66213,371.764541 C1036.133,373.024151 1035.97604,373.653957 1034.56345,378.377496 C1032.36607,385.305353 1032.36607,385.147902 1034.87736,384.99045 C1036.60386,384.675548 1052.92721,377.905142 1055.28153,376.330629 C1055.72008,376.066666 1056.01159,375.950212 1056.26562,376.008744 C1057.52702,374.680502 1058.95484,373.75429 1060.39774,373.509811 C1062.36759,373.025854 1064.00914,373.832449 1065.32237,375.768276 C1065.97899,376.73619 1065.97899,377.220147 1065.48652,379.155974 C1064.33744,383.188947 1060.23359,387.705877 1057.44296,387.705877 C1056.62219,387.705877 1056.45804,387.867196 1056.62219,388.351153 C1057.60712,390.932256 1063.51667,388.996428 1073.8584,383.188947 C1078.12641,380.607844 1084.03597,377.542784 1086.66243,376.252233 C1090.93045,374.155087 1091.75122,373.993768 1092.07953,374.639044 L1091.75122,374.800363 C1092.57199,376.090914 1092.40784,376.252233 1090.10968,377.542784 C1089.40902,377.936245 1087.4877,379.10943 1085.09002,380.550325 L1084.50582,380.901018 C1083.51817,381.493199 1082.46383,382.121659 1081.39043,382.753631 L1080.74449,383.132973 L1080.09626,383.511585 C1075.82825,386.092688 1070.90362,388.996428 1069.09792,389.964342 C1063.51667,393.029402 1058.7562,394.158634 1055.96557,393.190721 C1054.48818,392.545445 1052.51833,389.964342 1052.02587,388.189834 C1051.59011,385.691787 1052.24685,382.688498 1053.52696,380.046168 C1051.62631,380.979297 1048.45911,382.39927 1045.25606,383.791451 L1044.487,384.124891 L1043.72036,384.45568 C1039.38997,386.319649 1035.35759,387.979675 1034.7204,388.139476 C1030.63957,388.926733 1028.59915,385.620255 1030.1687,380.266911 C1030.32566,379.322203 1030.48261,378.377496 1030.32566,378.220044 C1030.07683,377.970436 1026.08066,383.161777 1022.08914,389.010799 L1021.66916,389.628708 C1021.45934,389.938671 1021.2499,390.24999 1021.04139,390.561969 L1020.62575,391.1866 C1020.48772,391.394965 1020.35026,391.603417 1020.21355,391.811749 L1019.8118,392.42687 C1019.54561,392.836453 1019.28289,393.244781 1019.02488,393.650272 C1014.47318,400.578129 1012.11885,405.144217 1010.70625,409.0805 C1009.45061,412.701879 1008.19497,413.331685 1005.84064,411.442269 C1004.74196,410.655013 1004.585,410.182659 1004.585,407.033633 C1004.585,404.097958 1005.99292,397.668526 1008.34823,389.23944 L1008.37314,389.236491 C1007.88664,389.236491 1002.53505,391.295691 996.372617,393.830091 C979.831352,400.64129 974.641935,402.22529 970.912042,401.11649 C968.803841,400.48289 966.85781,398.58209 966.209133,396.522891 C965.560456,394.463691 966.371302,391.295691 968.803841,387.335691 C969.138072,386.737178 969.558408,386.096612 970.037738,385.440476 C969.659793,385.583303 969.241096,385.729644 968.782574,385.878894 C962.216345,388.065934 953.206867,389.315671 942.21225,389.940539 L937.325754,390.252974 L936.714942,392.752447 C935.340615,397.595178 930.759524,406.030902 927.552761,409.467679 C923.735186,413.841758 921.597344,414.935278 919.001392,413.685541 C917.016253,412.904455 916.100035,410.717416 916.252738,406.811988 C916.405441,402.437909 917.779768,397.282744 920.070314,392.440013 C922.208156,387.909717 924.498701,385.254026 926.636543,384.47294 C927.552761,384.316723 928.774385,383.691855 929.5379,383.066986 C930.301415,382.598335 931.828445,382.129683 932.897366,381.973466 C934.424397,381.817249 934.882506,381.973466 935.798724,382.910769 C936.409536,383.37942 937.020348,384.316723 937.173051,384.941592 C937.325754,385.878894 937.783863,386.035111 942.21225,386.191328 C949.541995,386.816197 960.383908,385.56646 968.629871,383.066986 C970.823176,382.468645 972.036391,382.443244 972.403585,382.57932 C974.406705,380.39739 976.636385,378.474902 978.04749,377.831692 C981.777383,376.406092 984.53426,377.673292 985.020768,380.999692 C985.507276,383.217292 983.723414,385.118091 981.453044,385.118091 C979.344844,385.118091 976.101458,387.177291 973.50675,389.870091 C967.506487,396.681291 969.614688,400.00769 978.371828,397.94849 C980.5003,397.32479 986.469998,395.063878 992.797628,392.508779 L993.703634,392.141909 C996.729263,390.913304 999.798443,389.632491 1002.53505,388.444491 C1005.61945,387.239409 1008.55718,386.034327 1009.2562,386.055306 C1012.03201,376.482274 1015.841,364.803807 1020.10792,352.883533 L1020.64396,351.391443 L1021.25165,349.712934 C1022.16728,347.194124 1023.10101,344.671895 1024.04745,342.163696 C1025.77395,337.75506 1026.55873,335.39329 1026.08787,335.235839 C1025.93091,335.235839 1025.30309,334.763485 1024.67527,334.448582 C1023.41963,333.188972 1023.73354,330.984654 1026.24482,326.89092 C1029.54088,321.380124 1035.34822,310.04363 1037.5456,304.375384 C1039.11515,300.28165 1039.58601,299.809296 1040.6847,299.651845 C1041.62643,299.494393 1042.0973,299.809296 1042.41121,300.596552 Z M930.148712,387.909717 C930.148712,388.222151 929.385197,389.315671 928.621682,390.096756 C927.705464,391.034059 926.331137,393.221099 925.414919,395.095704 C923.582483,399.001132 921.139235,406.343336 921.139235,408.061725 C921.139235,408.999027 921.291938,409.155245 922.055453,408.686593 C922.513562,408.530376 924.040592,406.811988 925.720325,405.0936 C927.705464,402.90656 929.079791,400.71952 930.759524,396.97031 L930.759524,396.657875 C933.660881,390.565408 933.813585,389.628105 932.897366,389.315671 C932.439257,389.159454 931.828445,388.690802 931.217633,388.065934 C930.454118,387.441065 930.148712,387.441065 930.148712,387.909717 Z M917.154465,304.379604 C913.923629,305.178948 911.015876,305.978292 910.53125,306.29803 C910.208167,306.617768 909.238916,308.536193 908.592748,310.614488 C907.86581,312.81058 906.395824,316.665699 904.554076,321.292041 L903.99077,322.702192 C902.97083,325.247103 901.855705,327.986132 900.70172,330.784594 L900.267265,331.83654 L899.829826,332.89248 C899.537353,333.59742 899.243331,334.303971 898.94864,335.010027 L898.388147,336.350405 L898.038443,337.184148 C893.201645,348.702185 888.428336,359.506317 887.59231,360.333685 C886.623059,361.612636 884.199932,361.612636 883.553764,360.333685 C882.746055,358.894866 883.069139,356.816572 884.361473,355.217884 C885.744922,353.261997 889.304512,346.281034 892.858586,338.776091 L893.260793,337.924479 C893.327785,337.782251 893.394745,337.639897 893.46166,337.497447 L893.885118,336.59337 C895.786666,332.521816 897.625634,328.424262 899.06178,325.00268 C901.484908,319.247403 905.523453,308.216456 905.361912,307.896718 C905.20037,307.896718 904.231119,308.056587 903.261868,308.536193 C901.484908,309.0158 901.323366,309.335537 898.900238,313.971732 C892.761649,326.28163 882.746055,354.738277 872.730461,388.310726 C870.953501,394.38574 869.176541,399.981148 869.176541,400.460755 L869.661167,400.141017 C869.338083,400.940361 869.499625,401.10023 870.145792,400.780492 C870.630418,400.620624 874.507422,399.181804 878.869051,397.423248 C934.439441,376.480434 970.46327,350.42182 976.60186,326.761237 C977.732652,323.084254 977.732652,317.808584 976.60186,314.771077 C975.79415,311.893438 972.078688,307.896718 969.009393,305.978292 C958.670716,300.063147 938.316445,299.423671 917.154465,304.379604 Z M1056.62219,383.027628 C1056.12973,385.124774 1057.93543,384.640817 1060.06943,382.382352 C1062.03928,380.123887 1062.6959,378.349379 1061.87513,377.542784 C1060.72605,376.574871 1057.44296,379.962568 1056.62219,383.027628 Z M908.039019,298.036817 L907.989191,298.090188 C907.411022,298.723975 905.038828,302.012515 905.038828,302.30131 C905.038828,302.780916 906.815788,302.141441 907.300414,301.501966 C907.733115,300.931006 908.294596,298.575796 908.065,298.077662 L908.039019,298.036817 Z" id="logo"></path>
        </g>
    </g>
</svg>